<?xml version="1.0" encoding="utf-8"?>
<!-- Generator: Adobe Illustrator 27.0.1, SVG Export Plug-In . SVG Version: 6.00 Build 0)  -->
<svg version="1.1" id="Layer_1" xmlns="http://www.w3.org/2000/svg" xmlns:xlink="http://www.w3.org/1999/xlink" x="0px" y="0px"
	 viewBox="0 0 100 100" style="enable-background:new 0 0 100 100;" xml:space="preserve">
<style type="text/css">
	.st0{fill:#96A7B8;}
</style>
<g id="FXR_Icon_Orange_00000000182214204072868350000013570934698745791929_">
	<g>
		<g>
			<path class="st0" d="M70.05,56.61l21.24,0l8.71,5.88L64.42,86.38l-10.54-7.1l24.89-16.79L70.05,56.61z M46.05,79.28l9.68-6.53
				l-40.2,0l34.62,23.21l10.35-6.95L46.05,79.28z M62.22,68.37l8.72-5.88l-8.73-5.88l-53.21,0l-8.69,5.88l8.74,5.88L62.22,68.37z"/>
		</g>
	</g>
</g>
<g>
	<path class="st0" d="M22.06,26.17l-8.16,6.78l-4.56-6.18l17.04-13.8h8.94L26.5,52.99H16.18L22.06,26.17z"/>
	<path class="st0" d="M63.7,27.91L52.12,52.99H41.2l-2.64-40.02H49.9l0.18,26.7l12.72-26.7h7.86l0.96,26.7l11.94-26.7h11.88
		L75.16,52.99H64.24L63.7,27.91z"/>
</g>
</svg>
