<?xml version="1.0" encoding="utf-8"?>
<!-- Generator: Adobe Illustrator 27.0.1, SVG Export Plug-In . SVG Version: 6.00 Build 0)  -->
<svg version="1.1" id="Layer_1" xmlns="http://www.w3.org/2000/svg" xmlns:xlink="http://www.w3.org/1999/xlink" x="0px" y="0px"
	 viewBox="0 0 100 100" style="enable-background:new 0 0 100 100;" xml:space="preserve">
<style type="text/css">
	.st0{fill:#FFFFFF;}
	.st1{fill:none;}
	.inherit{fill:currentColor;}
</style>
<g>
	<path class="st0" d="M25.01,22.42c16.66,0,33.33,0,49.99,0c0,16.66,0,33.33,0,49.99c-16.66,0-33.33,0-49.99,0
		C25.01,55.75,25.01,39.09,25.01,22.42z M38.77,38.53c-0.08,0.16-0.13,0.27-0.18,0.39c-0.29,0.68-0.58,1.36-0.87,2.04
		c-0.2,0.47-0.46,0.59-0.97,0.49c-1.13-0.24-2.26-0.49-3.39-0.73c-0.68-0.14-1.37-0.28-2.09-0.43c0.05,0.17,0.08,0.28,0.12,0.39
		c0.58,1.78,1.16,3.56,1.73,5.34c0.2,0.62,0.09,0.87-0.5,1.15c-0.64,0.3-1.29,0.6-1.98,0.92c0.13,0.11,0.23,0.2,0.32,0.28
		c3.1,2.52,6.21,5.03,9.31,7.55c0.43,0.35,0.48,0.53,0.29,1.05c-0.24,0.66-0.48,1.32-0.72,1.98c-0.13,0.37-0.26,0.74-0.41,1.16
		c0.17-0.02,0.29-0.02,0.4-0.04c2.68-0.47,5.36-0.9,8.02-1.43c1.21-0.24,1.75,0.25,1.65,1.48c-0.17,2.22-0.26,4.44-0.37,6.67
		c-0.03,0.58-0.05,1.16-0.08,1.77c0.63,0,1.24,0,1.87,0c-0.06-1.25-0.13-2.47-0.19-3.69c-0.09-1.73-0.19-3.46-0.27-5.19
		c-0.04-0.78,0.48-1.22,1.24-1.09c2.05,0.35,4.1,0.71,6.15,1.07c0.88,0.15,1.76,0.31,2.69,0.47c-0.06-0.17-0.09-0.29-0.14-0.41
		c-0.32-0.89-0.65-1.78-0.97-2.68c-0.22-0.61-0.18-0.75,0.31-1.14c2.98-2.42,5.97-4.83,8.95-7.25c0.21-0.17,0.41-0.34,0.66-0.55
		c-0.69-0.32-1.32-0.62-1.96-0.91c-0.64-0.3-0.74-0.52-0.52-1.2c0.57-1.77,1.15-3.53,1.72-5.3c0.04-0.11,0.06-0.23,0.1-0.38
		c-1.71,0.36-3.36,0.7-5.01,1.05c-1.13,0.24-1.16,0.23-1.6-0.82c-0.28-0.65-0.56-1.31-0.87-2.03c-0.13,0.15-0.21,0.25-0.3,0.34
		c-1.32,1.42-2.65,2.84-3.97,4.26c-0.26,0.28-0.55,0.45-0.93,0.27c-0.39-0.19-0.4-0.54-0.33-0.91c0.48-2.46,0.96-4.92,1.44-7.39
		c0.21-1.1,0.42-2.21,0.65-3.38c-1.11,0.64-2.15,1.24-3.2,1.85c-0.62,0.36-0.93,0.26-1.25-0.37c-1.05-2.05-2.09-4.1-3.13-6.15
		c-0.06-0.12-0.13-0.24-0.22-0.4c-0.09,0.16-0.15,0.26-0.21,0.37c-1,1.96-1.99,3.91-2.99,5.87c-0.53,1.05-0.68,1.09-1.69,0.51
		c-0.95-0.55-1.91-1.1-2.9-1.67c0.01,0.1,0.01,0.15,0.02,0.2c0.68,3.5,1.35,6.99,2.03,10.49c0.1,0.53,0.02,0.82-0.32,0.98
		c-0.32,0.16-0.6,0.07-0.95-0.31c-1.17-1.26-2.34-2.52-3.51-3.77C39.27,39.05,39.03,38.81,38.77,38.53z"/>
	<path class="inherit" d="M25.01,22.42c0,16.66,0,33.33,0,49.99c-8.33,0-16.66,0-25,0c0-16.66,0-33.33,0-49.99C8.35,22.42,16.68,22.42,25.01,22.42z"
		/>
	<path  class="inherit" d="M75,72.41c0-16.66,0-33.33,0-49.99c8.33,0,16.66,0,25,0c0,16.66,0,33.33,0,49.99C91.67,72.41,83.34,72.41,75,72.41z"/>
	<path  class="inherit" d="M38.77,38.53c0.26,0.28,0.49,0.52,0.72,0.76c1.17,1.26,2.34,2.52,3.51,3.77c0.35,0.38,0.63,0.47,0.95,0.31
		c0.34-0.17,0.42-0.45,0.32-0.98c-0.68-3.5-1.36-6.99-2.03-10.49c-0.01-0.05-0.01-0.1-0.02-0.2c0.99,0.57,1.95,1.12,2.9,1.67
		c1.01,0.58,1.15,0.54,1.69-0.51c1-1.96,1.99-3.92,2.99-5.87c0.06-0.11,0.12-0.22,0.21-0.37c0.09,0.16,0.16,0.28,0.22,0.4
		c1.04,2.05,2.09,4.1,3.13,6.15c0.32,0.63,0.63,0.72,1.25,0.37c1.05-0.6,2.09-1.21,3.2-1.85c-0.22,1.17-0.43,2.27-0.65,3.38
		c-0.48,2.46-0.96,4.92-1.44,7.39c-0.07,0.37-0.06,0.72,0.33,0.91c0.38,0.19,0.66,0.02,0.93-0.27c1.32-1.42,2.64-2.84,3.97-4.26
		c0.09-0.09,0.17-0.19,0.3-0.34c0.31,0.72,0.59,1.37,0.87,2.03c0.45,1.05,0.47,1.06,1.6,0.82c1.65-0.35,3.3-0.7,5.01-1.05
		c-0.04,0.15-0.06,0.27-0.1,0.38c-0.57,1.77-1.15,3.53-1.72,5.3c-0.22,0.68-0.12,0.9,0.52,1.2c0.63,0.3,1.27,0.59,1.96,0.91
		c-0.25,0.2-0.45,0.38-0.66,0.55c-2.98,2.42-5.97,4.83-8.95,7.25c-0.49,0.4-0.52,0.54-0.31,1.14c0.32,0.89,0.64,1.78,0.97,2.68
		c0.04,0.12,0.08,0.24,0.14,0.41c-0.93-0.16-1.81-0.32-2.69-0.47c-2.05-0.36-4.1-0.72-6.15-1.07c-0.76-0.13-1.27,0.31-1.24,1.09
		c0.08,1.73,0.18,3.46,0.27,5.19c0.06,1.22,0.13,2.44,0.19,3.69c-0.63,0-1.23,0-1.87,0c0.03-0.6,0.05-1.19,0.08-1.77
		c0.12-2.22,0.2-4.45,0.37-6.67c0.1-1.24-0.44-1.72-1.65-1.48c-2.66,0.53-5.35,0.96-8.02,1.43c-0.11,0.02-0.23,0.03-0.4,0.04
		c0.15-0.41,0.28-0.79,0.41-1.16c0.24-0.66,0.48-1.32,0.72-1.98c0.19-0.52,0.14-0.7-0.29-1.05c-3.1-2.52-6.21-5.03-9.31-7.55
		c-0.1-0.08-0.19-0.16-0.32-0.28c0.69-0.32,1.33-0.62,1.98-0.92c0.59-0.28,0.7-0.52,0.5-1.15c-0.58-1.78-1.16-3.56-1.73-5.34
		c-0.04-0.11-0.07-0.22-0.12-0.39c0.72,0.15,1.4,0.29,2.09,0.43c1.13,0.24,2.26,0.49,3.39,0.73c0.5,0.11,0.76-0.02,0.97-0.49
		c0.3-0.68,0.58-1.36,0.87-2.04C38.64,38.81,38.7,38.69,38.77,38.53z"/>
</g>
<rect x="0.39" y="22.42" class="st1" width="99.61" height="49.81"/>
</svg>
