<?xml version="1.0" encoding="utf-8"?>
<!-- Generator: Adobe Illustrator 27.0.1, SVG Export Plug-In . SVG Version: 6.00 Build 0)  -->
<svg version="1.1" id="Layer_1" xmlns="http://www.w3.org/2000/svg" xmlns:xlink="http://www.w3.org/1999/xlink" x="0px" y="0px"
	 viewBox="0 0 100 100" style="enable-background:new 0 0 100 100;" xml:space="preserve">
<style type="text/css">
	.st0{fill:#FFFFFF;}
</style>
<g>
	<path d="M0.03,83.31c0-22.21,0-44.42,0-66.63c33.31,0,66.63,0,99.94,0c0,22.21,0,44.42,0,66.63C66.66,83.31,33.34,83.31,0.03,83.31
		z M41.2,33.99c-0.26-0.8-0.43-1.46-0.69-2.09c-0.18-0.45-0.08-0.7,0.31-0.96c0.56-0.36,1.08-0.79,1.61-1.19
		c-0.64-0.12-1.22-0.16-1.79-0.11c-0.63,0.05-0.98-0.11-1.12-0.79c-0.11-0.57-0.38-1.12-0.57-1.68c-0.33,0.63-0.56,1.23-0.71,1.86
		c-0.11,0.47-0.32,0.63-0.8,0.6c-0.66-0.04-1.33-0.01-1.99-0.01c-0.01,0.05-0.02,0.11-0.04,0.16c0.68,0.5,1.36,1,2.05,1.51
		c-0.28,0.85-0.55,1.69-0.87,2.69c0.86-0.61,1.58-1.13,2.3-1.65C39.64,32.87,40.33,33.37,41.2,33.99z M63.38,33.99
		c-0.26-0.8-0.43-1.46-0.69-2.09c-0.18-0.45-0.08-0.7,0.31-0.96c0.56-0.36,1.08-0.79,1.61-1.19c-0.64-0.12-1.22-0.16-1.79-0.11
		c-0.63,0.05-0.98-0.11-1.12-0.79c-0.11-0.57-0.38-1.12-0.57-1.68c-0.33,0.63-0.56,1.23-0.71,1.86c-0.11,0.47-0.32,0.63-0.8,0.6
		c-0.66-0.04-1.33-0.01-1.99-0.01c-0.01,0.05-0.02,0.11-0.04,0.16c0.68,0.5,1.36,1,2.05,1.51c-0.28,0.85-0.55,1.69-0.87,2.69
		c0.86-0.61,1.58-1.13,2.3-1.65C61.82,32.87,62.52,33.37,63.38,33.99z M32.9,41.96c0.04-0.03,0.07-0.05,0.11-0.08
		c-0.21-0.66-0.39-1.32-0.63-1.96c-0.14-0.38-0.04-0.61,0.27-0.83c0.56-0.38,1.09-0.79,1.64-1.19c-0.7-0.14-1.35-0.17-2-0.13
		c-0.51,0.04-0.74-0.17-0.86-0.64c-0.17-0.63-0.38-1.25-0.57-1.87c-0.35,0.63-0.59,1.23-0.74,1.86c-0.12,0.51-0.37,0.69-0.89,0.65
		c-0.63-0.04-1.27-0.01-1.9-0.01c0,0.05-0.01,0.11-0.01,0.16c0.67,0.5,1.33,1,2.01,1.5c-0.25,0.84-0.49,1.66-0.78,2.65
		c0.69-0.5,1.22-0.87,1.73-1.27c0.34-0.26,0.61-0.34,1-0.01C31.78,41.23,32.36,41.58,32.9,41.96z M27.37,59.93
		c-0.01,0.05-0.03,0.09-0.04,0.14c0.67,0.51,1.34,1.01,2.02,1.52c-0.25,0.84-0.49,1.65-0.73,2.47c0.65-0.34,1.19-0.74,1.73-1.14
		c0.3-0.23,0.55-0.3,0.9,0c0.52,0.45,1.12,0.81,1.68,1.21c-0.12-0.75-0.3-1.41-0.54-2.06c-0.14-0.38-0.03-0.61,0.28-0.83
		c0.56-0.38,1.09-0.79,1.64-1.19c-0.66-0.14-1.28-0.18-1.88-0.12c-0.61,0.06-0.88-0.19-1.01-0.77c-0.13-0.59-0.36-1.16-0.54-1.74
		c-0.36,0.67-0.58,1.32-0.76,1.98c-0.11,0.41-0.32,0.54-0.74,0.52C28.7,59.9,28.04,59.93,27.37,59.93z M50.09,24.27
		c-0.05-0.02-0.1-0.03-0.15-0.05c-0.27,0.8-0.54,1.6-0.84,2.48c-0.83,0-1.67,0-2.52,0c-0.01,0.04-0.02,0.09-0.03,0.13
		c0.68,0.51,1.35,1.02,2.03,1.53c-0.27,0.84-0.54,1.65-0.8,2.47c0.66-0.33,1.22-0.72,1.77-1.14c0.33-0.25,0.59-0.31,0.95,0.01
		c0.51,0.45,1.09,0.8,1.79,1.3c-0.28-0.83-0.49-1.49-0.71-2.13c-0.13-0.38-0.05-0.63,0.3-0.86c0.57-0.37,1.1-0.79,1.65-1.2
		c-0.73-0.13-1.42-0.15-2.11-0.13c-0.39,0.01-0.59-0.13-0.7-0.51C50.53,25.53,50.3,24.9,50.09,24.27z M71.35,41.98
		c0.03-0.02,0.07-0.05,0.1-0.07c-0.27-0.82-0.53-1.64-0.8-2.47c0.69-0.52,1.36-1.02,2.03-1.53c-0.71-0.15-1.37-0.17-2.04-0.14
		c-0.39,0.01-0.59-0.13-0.7-0.51c-0.19-0.66-0.43-1.3-0.71-2.14c-0.28,0.83-0.52,1.46-0.7,2.12c-0.12,0.41-0.33,0.55-0.75,0.53
		c-0.68-0.03-1.36-0.01-2.04-0.01c-0.01,0.05-0.01,0.09-0.02,0.14c0.7,0.51,1.4,1.02,2.1,1.53c-0.28,0.86-0.54,1.67-0.8,2.47
		c0.04,0.02,0.07,0.04,0.11,0.07c0.7-0.5,1.41-1,2.12-1.5C69.97,40.99,70.66,41.49,71.35,41.98z M29.93,53.05
		c0.04-0.02,0.07-0.05,0.11-0.07c-0.21-0.63-0.4-1.27-0.63-1.9c-0.14-0.39-0.09-0.66,0.29-0.91c0.57-0.36,1.09-0.79,1.64-1.19
		c-0.64-0.13-1.23-0.17-1.81-0.12c-0.61,0.06-0.94-0.14-1.08-0.76c-0.13-0.59-0.38-1.15-0.64-1.88c-0.33,0.97-0.6,1.77-0.89,2.65
		c-0.83,0-1.68,0-2.52,0c-0.01,0.04-0.02,0.09-0.03,0.13c0.68,0.51,1.35,1.02,2.03,1.53c-0.27,0.84-0.54,1.65-0.8,2.47
		c0.65-0.32,1.2-0.69,1.72-1.1c0.34-0.26,0.61-0.37,1-0.02C28.81,52.31,29.39,52.66,29.93,53.05z M70.76,50.52
		c-0.27,0.83-0.54,1.65-0.8,2.47c0.66-0.32,1.22-0.72,1.77-1.14c0.33-0.25,0.59-0.31,0.95,0.01c0.51,0.45,1.09,0.8,1.78,1.29
		c-0.25-0.79-0.43-1.41-0.65-2.01c-0.17-0.44-0.15-0.73,0.31-1c0.56-0.34,1.06-0.78,1.59-1.17c-0.71-0.13-1.38-0.15-2.05-0.12
		c-0.46,0.03-0.66-0.17-0.78-0.58c-0.19-0.64-0.41-1.27-0.62-1.9c-0.04,0-0.08,0-0.12,0c-0.27,0.8-0.54,1.6-0.84,2.48
		c-0.82,0-1.67,0-2.52,0c-0.01,0.04-0.03,0.09-0.04,0.13C69.4,49.5,70.08,50.01,70.76,50.52z M71.35,64.15
		c0.03-0.03,0.06-0.07,0.09-0.1c-0.27-0.81-0.53-1.62-0.8-2.44c0.69-0.52,1.36-1.02,2.04-1.53c-0.69-0.15-1.34-0.18-1.98-0.14
		c-0.46,0.03-0.66-0.16-0.78-0.57c-0.19-0.64-0.41-1.27-0.62-1.9c-0.34,0.63-0.57,1.25-0.74,1.89c-0.12,0.46-0.38,0.61-0.84,0.59
		c-0.66-0.03-1.32-0.01-1.97-0.01c0.56,0.56,1.12,0.99,1.71,1.38c0.3,0.2,0.36,0.42,0.24,0.75c-0.24,0.66-0.46,1.33-0.69,2
		c0.03,0.03,0.06,0.06,0.09,0.09c0.72-0.5,1.43-1.01,2.15-1.51C69.97,63.16,70.66,63.66,71.35,64.15z M52.14,75.23
		c0.03-0.04,0.05-0.07,0.08-0.11c-0.2-0.62-0.39-1.25-0.61-1.86c-0.16-0.42-0.1-0.69,0.31-0.95c0.56-0.35,1.07-0.79,1.6-1.19
		c-0.72-0.12-1.38-0.14-2.03-0.11c-0.44,0.02-0.67-0.14-0.79-0.56c-0.19-0.64-0.42-1.27-0.63-1.91c-0.04,0.01-0.09,0.01-0.13,0.02
		c-0.27,0.8-0.54,1.6-0.83,2.48c-0.84,0-1.68,0-2.7,0c0.83,0.62,1.5,1.12,2.19,1.63c-0.27,0.83-0.54,1.65-0.8,2.47
		c0.65-0.32,1.21-0.71,1.76-1.12c0.32-0.24,0.58-0.33,0.95-0.01C50.99,74.47,51.58,74.83,52.14,75.23z M35.52,68.06
		c-0.02,0.05-0.04,0.09-0.06,0.14c0.32,0.24,0.64,0.48,0.97,0.71c1.09,0.78,1.09,0.78,0.67,2.05c-0.13,0.4-0.25,0.8-0.37,1.2
		c0.68-0.34,1.23-0.71,1.75-1.13c0.31-0.25,0.54-0.25,0.85,0c0.53,0.43,1.1,0.81,1.81,1.32c-0.23-0.8-0.36-1.43-0.61-2.02
		c-0.22-0.51-0.04-0.78,0.35-1.05c0.52-0.35,1.02-0.73,1.54-1.1c-0.63-0.12-1.21-0.16-1.78-0.11c-0.63,0.05-0.99-0.11-1.12-0.79
		c-0.11-0.58-0.37-1.14-0.62-1.88c-0.26,0.77-0.51,1.37-0.66,1.99c-0.14,0.54-0.42,0.72-0.96,0.67
		C36.71,68.02,36.11,68.06,35.52,68.06z M58.89,72.15c0.04,0.03,0.09,0.05,0.13,0.08c0.54-0.39,1.1-0.75,1.6-1.17
		c0.36-0.3,0.6-0.27,0.95,0.02c0.51,0.42,1.07,0.77,1.75,1.25c-0.23-0.81-0.36-1.47-0.62-2.08c-0.19-0.45-0.03-0.68,0.29-0.91
		c0.53-0.39,1.07-0.77,1.61-1.16c-0.72-0.13-1.41-0.14-2.09-0.12c-0.39,0.01-0.59-0.12-0.7-0.51c-0.19-0.67-0.43-1.32-0.71-2.17
		c-0.28,0.83-0.52,1.48-0.71,2.14c-0.12,0.4-0.32,0.56-0.74,0.54c-0.66-0.03-1.32-0.01-1.99-0.01c0.46,0.49,0.89,0.91,1.41,1.18
		c0.58,0.31,0.62,0.67,0.39,1.22C59.22,71,59.08,71.58,58.89,72.15z"/>
	<path class="st0" d="M41.2,33.99c-0.87-0.62-1.56-1.12-2.28-1.64c-0.72,0.52-1.44,1.03-2.3,1.65c0.32-0.99,0.59-1.83,0.87-2.69
		c-0.69-0.51-1.37-1.01-2.05-1.51c0.01-0.05,0.02-0.11,0.04-0.16c0.66,0,1.33-0.03,1.99,0.01c0.48,0.03,0.69-0.14,0.8-0.6
		c0.15-0.63,0.38-1.24,0.71-1.86c0.2,0.56,0.46,1.1,0.57,1.68c0.13,0.68,0.49,0.85,1.12,0.79c0.57-0.05,1.15-0.01,1.79,0.11
		c-0.54,0.4-1.06,0.82-1.61,1.19c-0.39,0.26-0.5,0.51-0.31,0.96C40.77,32.53,40.94,33.19,41.2,33.99z"/>
	<path class="st0" d="M63.38,33.99c-0.87-0.62-1.56-1.12-2.28-1.64c-0.72,0.52-1.44,1.03-2.3,1.65c0.32-0.99,0.59-1.83,0.87-2.69
		c-0.69-0.51-1.37-1.01-2.05-1.51c0.01-0.05,0.02-0.11,0.04-0.16c0.66,0,1.33-0.03,1.99,0.01c0.48,0.03,0.69-0.14,0.8-0.6
		c0.15-0.63,0.38-1.24,0.71-1.86c0.2,0.56,0.46,1.1,0.57,1.68c0.13,0.68,0.49,0.85,1.12,0.79c0.57-0.05,1.15-0.01,1.79,0.11
		c-0.54,0.4-1.06,0.82-1.61,1.19c-0.39,0.26-0.5,0.51-0.31,0.96C62.95,32.53,63.12,33.19,63.38,33.99z"/>
	<path class="st0" d="M32.9,41.96c-0.54-0.39-1.12-0.73-1.62-1.17c-0.38-0.34-0.65-0.26-1,0.01c-0.51,0.4-1.04,0.77-1.73,1.27
		c0.29-0.99,0.54-1.81,0.78-2.65c-0.67-0.5-1.34-1-2.01-1.5c0-0.05,0.01-0.11,0.01-0.16c0.63,0,1.27-0.03,1.9,0.01
		c0.52,0.04,0.77-0.14,0.89-0.65c0.15-0.63,0.39-1.23,0.74-1.86c0.19,0.62,0.4,1.24,0.57,1.87c0.12,0.46,0.35,0.68,0.86,0.64
		c0.65-0.05,1.3-0.01,2,0.13c-0.55,0.4-1.08,0.81-1.64,1.19c-0.32,0.22-0.42,0.44-0.27,0.83c0.24,0.64,0.42,1.31,0.63,1.96
		C32.98,41.91,32.94,41.93,32.9,41.96z"/>
	<path class="st0" d="M27.37,59.93c0.67,0,1.34-0.03,2,0.01c0.42,0.02,0.63-0.12,0.74-0.52c0.18-0.66,0.4-1.31,0.76-1.98
		c0.18,0.58,0.41,1.15,0.54,1.74c0.13,0.58,0.39,0.82,1.01,0.77c0.6-0.06,1.22-0.01,1.88,0.12c-0.54,0.4-1.08,0.81-1.64,1.19
		c-0.32,0.22-0.42,0.44-0.28,0.83c0.24,0.64,0.42,1.31,0.54,2.06c-0.56-0.4-1.16-0.76-1.68-1.21c-0.35-0.3-0.6-0.22-0.9,0
		c-0.54,0.4-1.08,0.79-1.73,1.14c0.24-0.82,0.48-1.64,0.73-2.47c-0.68-0.51-1.35-1.01-2.02-1.52
		C27.34,60.02,27.35,59.97,27.37,59.93z"/>
	<path class="st0" d="M50.09,24.27c0.21,0.63,0.45,1.26,0.63,1.91c0.11,0.38,0.31,0.53,0.7,0.51c0.69-0.02,1.38-0.01,2.11,0.13
		c-0.55,0.4-1.08,0.83-1.65,1.2c-0.35,0.23-0.43,0.48-0.3,0.86c0.23,0.65,0.44,1.3,0.71,2.13c-0.7-0.5-1.28-0.85-1.79-1.3
		c-0.36-0.32-0.62-0.26-0.95-0.01c-0.55,0.41-1.11,0.81-1.77,1.14c0.26-0.82,0.53-1.63,0.8-2.47c-0.68-0.51-1.36-1.02-2.03-1.53
		c0.01-0.04,0.02-0.09,0.03-0.13c0.85,0,1.69,0,2.52,0c0.3-0.88,0.57-1.68,0.84-2.48C49.99,24.23,50.04,24.25,50.09,24.27z"/>
	<path class="st0" d="M71.35,41.98c-0.69-0.49-1.38-0.99-2.12-1.51c-0.71,0.5-1.41,1-2.12,1.5c-0.04-0.02-0.07-0.04-0.11-0.07
		c0.26-0.81,0.52-1.62,0.8-2.47c-0.7-0.51-1.4-1.02-2.1-1.53c0.01-0.05,0.01-0.09,0.02-0.14c0.68,0,1.36-0.02,2.04,0.01
		c0.42,0.02,0.63-0.13,0.75-0.53c0.19-0.65,0.43-1.29,0.7-2.12c0.28,0.84,0.52,1.48,0.71,2.14c0.11,0.38,0.31,0.52,0.7,0.51
		c0.67-0.02,1.33-0.01,2.04,0.14c-0.67,0.51-1.35,1.01-2.03,1.53c0.27,0.83,0.54,1.65,0.8,2.47C71.41,41.93,71.38,41.96,71.35,41.98
		z"/>
	<path class="st0" d="M29.93,53.05c-0.54-0.39-1.12-0.74-1.61-1.18c-0.39-0.35-0.66-0.24-1,0.02c-0.53,0.41-1.08,0.78-1.72,1.1
		c0.26-0.81,0.53-1.63,0.8-2.47c-0.68-0.51-1.36-1.02-2.03-1.53c0.01-0.04,0.02-0.09,0.03-0.13c0.85,0,1.69,0,2.52,0
		c0.3-0.88,0.57-1.68,0.89-2.65c0.26,0.74,0.51,1.3,0.64,1.88c0.14,0.63,0.46,0.82,1.08,0.76c0.58-0.05,1.18-0.01,1.81,0.12
		c-0.54,0.4-1.07,0.83-1.64,1.19c-0.38,0.25-0.43,0.52-0.29,0.91c0.23,0.63,0.42,1.26,0.63,1.9C30,53,29.97,53.02,29.93,53.05z"/>
	<path class="st0" d="M70.76,50.52c-0.68-0.52-1.36-1.02-2.03-1.53c0.01-0.04,0.03-0.09,0.04-0.13c0.85,0,1.7,0,2.52,0
		c0.3-0.88,0.57-1.68,0.84-2.48c0.04,0,0.08,0,0.12,0c0.21,0.63,0.43,1.26,0.62,1.9c0.12,0.41,0.33,0.6,0.78,0.58
		c0.67-0.04,1.34-0.01,2.05,0.12c-0.53,0.4-1.02,0.84-1.59,1.17c-0.46,0.27-0.48,0.56-0.31,1c0.23,0.6,0.4,1.22,0.65,2.01
		c-0.69-0.49-1.27-0.84-1.78-1.29c-0.36-0.32-0.62-0.25-0.95-0.01c-0.55,0.41-1.11,0.81-1.77,1.14
		C70.22,52.17,70.49,51.36,70.76,50.52z"/>
	<path class="st0" d="M71.35,64.15c-0.69-0.49-1.38-0.99-2.12-1.51c-0.72,0.5-1.43,1.01-2.15,1.51c-0.03-0.03-0.06-0.06-0.09-0.09
		c0.23-0.67,0.44-1.34,0.69-2c0.12-0.33,0.07-0.55-0.24-0.75c-0.59-0.39-1.16-0.82-1.71-1.38c0.66,0,1.32-0.03,1.97,0.01
		c0.46,0.02,0.72-0.12,0.84-0.59c0.17-0.64,0.41-1.26,0.74-1.89c0.21,0.63,0.43,1.26,0.62,1.9c0.12,0.41,0.33,0.6,0.78,0.57
		c0.64-0.04,1.29-0.01,1.98,0.14c-0.67,0.51-1.35,1.01-2.04,1.53c0.27,0.82,0.53,1.63,0.8,2.44C71.41,64.08,71.38,64.12,71.35,64.15
		z"/>
	<path class="st0" d="M52.14,75.23c-0.56-0.4-1.14-0.76-1.65-1.21c-0.37-0.32-0.63-0.23-0.95,0.01c-0.55,0.41-1.11,0.81-1.76,1.12
		c0.27-0.82,0.53-1.64,0.8-2.47c-0.69-0.51-1.35-1.01-2.19-1.63c1.02,0,1.85,0,2.7,0c0.29-0.88,0.56-1.68,0.83-2.48
		c0.04-0.01,0.09-0.01,0.13-0.02c0.21,0.63,0.45,1.26,0.63,1.91c0.12,0.42,0.35,0.58,0.79,0.56c0.65-0.03,1.31-0.01,2.03,0.11
		c-0.53,0.4-1.04,0.84-1.6,1.19c-0.42,0.26-0.47,0.53-0.31,0.95c0.23,0.61,0.41,1.24,0.61,1.86C52.19,75.16,52.16,75.19,52.14,75.23
		z"/>
	<path class="st0" d="M35.52,68.06c0.59,0,1.19-0.03,1.77,0.01c0.54,0.04,0.82-0.13,0.96-0.67c0.16-0.62,0.4-1.22,0.66-1.99
		c0.25,0.74,0.51,1.29,0.62,1.88c0.13,0.68,0.49,0.84,1.12,0.79c0.57-0.05,1.14-0.01,1.78,0.11c-0.51,0.37-1.02,0.75-1.54,1.1
		c-0.39,0.27-0.57,0.54-0.35,1.05c0.25,0.59,0.37,1.22,0.61,2.02c-0.71-0.51-1.28-0.89-1.81-1.32c-0.31-0.25-0.54-0.25-0.85,0
		c-0.52,0.42-1.07,0.8-1.75,1.13c0.12-0.4,0.24-0.8,0.37-1.2c0.42-1.27,0.43-1.27-0.67-2.05c-0.33-0.23-0.65-0.47-0.97-0.71
		C35.48,68.15,35.5,68.1,35.52,68.06z"/>
	<path class="st0" d="M58.89,72.15c0.18-0.57,0.33-1.15,0.56-1.7c0.23-0.55,0.2-0.9-0.39-1.22c-0.51-0.27-0.95-0.69-1.41-1.18
		c0.66,0,1.33-0.02,1.99,0.01c0.43,0.02,0.63-0.14,0.74-0.54c0.19-0.66,0.43-1.3,0.71-2.14c0.28,0.84,0.52,1.5,0.71,2.17
		c0.11,0.38,0.31,0.52,0.7,0.51c0.69-0.02,1.37-0.01,2.09,0.12c-0.54,0.38-1.08,0.77-1.61,1.16c-0.32,0.23-0.48,0.46-0.29,0.91
		c0.26,0.61,0.39,1.27,0.62,2.08c-0.68-0.48-1.24-0.84-1.75-1.25c-0.35-0.28-0.59-0.32-0.95-0.02c-0.51,0.42-1.07,0.79-1.6,1.17
		C58.98,72.2,58.94,72.18,58.89,72.15z"/>
</g>
</svg>
