<?xml version="1.0" encoding="utf-8"?>
<!-- Generator: Adobe Illustrator 27.0.1, SVG Export Plug-In . SVG Version: 6.00 Build 0)  -->
<svg version="1.1" id="Layer_1" xmlns="http://www.w3.org/2000/svg" xmlns:xlink="http://www.w3.org/1999/xlink" x="0px" y="0px"
	 viewBox="0 0 100 100" style="enable-background:new 0 0 100 100;" xml:space="preserve">
<style type="text/css">
	.st0{fill:#FFC908;}
	.st1{fill:#005290;}
	.st2{fill:#FFFFFF;}
</style>
<g>
	<path class="st0" d="M43.68,56.14c0,8.4,0,16.78,0,25.16c-4.16,0-8.32,0-12.48,0c0-8.38,0-16.76,0-25.16c-10.42,0-20.81,0-31.2,0
		c0-4.13,0-8.26,0-12.38c10.39,0,20.78,0,31.2,0c0-8.34,0-16.65,0-24.96c4.16,0,8.32,0,12.48,0c0,8.31,0,16.63,0,24.96"/>
	<path class="st1" d="M43.68,81.3c0-8.38,0-16.76,0-25.16"/>
	<path class="st1" d="M43.68,43.76c0-8.33,0-16.65,0-24.96"/>
	<path class="st1" d="M0,56.14c10.39,0,20.78,0,31.2,0c0,8.4,0,16.78,0,25.16c-10.4,0-20.8,0-31.2,0C0,72.91,0,64.53,0,56.14z"/>
	<path class="st1" d="M31.2,18.8c0,8.31,0,16.63,0,24.96c-10.42,0-20.81,0-31.2,0c0-8.32,0-16.64,0-24.96
		C10.4,18.8,20.8,18.8,31.2,18.8z"/>
</g>
<g>
	<path d="M39.33,18.7c15.62,0,45.05,0,60.67,0c0,7.76,0,15.51,0,23.27c-15.59,0-44.99,0-60.67,0C39.33,34.17,39.33,26.43,39.33,18.7
		z"/>
	<path d="M100,58.03c0,7.76,0,15.51,0,23.27c-15.62,0-45.05,0-60.67,0c0-7.73,0-15.47,0-23.27C55.01,58.03,84.41,58.03,100,58.03z"
		/>
	<path d="M0,53.77c0-2.51,0-5.03,0-7.54c9.15,0,18.3,0,27.53,0c0-9.23,0-18.38,0-27.53c2.51,0,5.03,0,7.54,0c0,9.15,0,18.31,0,27.53
		c17.1,0,47.92,0,64.93,0c0,2.51,0,5.03,0,7.54c-17.01,0-47.83,0-64.93,0c0,9.22,0,18.38,0,27.53c-2.51,0-5.03,0-7.54,0
		c0-9.15,0-18.3,0-27.53C18.3,53.77,9.15,53.77,0,53.77z"/>
	<path d="M0,41.97c0-7.76,0-15.51,0-23.27c7.76,0,15.51,0,23.27,0c0,7.73,0,15.46,0,23.27C15.46,41.97,7.73,41.97,0,41.97z"/>
	<path d="M23.27,81.3c-7.76,0-15.51,0-23.27,0c0-7.76,0-15.51,0-23.27c7.73,0,15.46,0,23.27,0C23.27,65.84,23.27,73.57,23.27,81.3z"
		/>
	<path class="st2" d="M100,46.23c-17.01,0-47.83,0-64.93,0c0-9.22,0-18.38,0-27.53c1.42,0,2.84,0,4.26,0c0,7.73,0,15.47,0,23.27
		c15.68,0,45.08,0,60.67,0C100,43.39,100,44.81,100,46.23z"/>
	<path class="st2" d="M35.07,81.3c0-9.15,0-18.31,0-27.53c17.1,0,47.92,0,64.93,0c0,1.42,0,2.84,0,4.26c-15.59,0-44.99,0-60.67,0
		c0,7.8,0,15.54,0,23.27C37.91,81.3,36.49,81.3,35.07,81.3z"/>
	<path class="st2" d="M0,41.97c7.73,0,15.46,0,23.27,0c0-7.81,0-15.54,0-23.27c1.42,0,2.84,0,4.26,0c0,9.15,0,18.3,0,27.53
		c-9.23,0-18.38,0-27.53,0C0,44.81,0,43.39,0,41.97z"/>
	<path class="st2" d="M23.27,81.3c0-7.73,0-15.46,0-23.27c-7.81,0-15.54,0-23.27,0c0-1.42,0-2.84,0-4.26c9.15,0,18.3,0,27.53,0
		c0,9.23,0,18.38,0,27.53C26.11,81.3,24.69,81.3,23.27,81.3z"/>
</g>
</svg>
