<?xml version="1.0" encoding="utf-8"?>
<!-- Generator: Adobe Illustrator 27.0.1, SVG Export Plug-In . SVG Version: 6.00 Build 0)  -->
<svg version="1.1" id="Layer_1" xmlns="http://www.w3.org/2000/svg" xmlns:xlink="http://www.w3.org/1999/xlink" x="0px" y="0px"
	 viewBox="0 0 100 100" style="enable-background:new 0 0 100 100;" xml:space="preserve">
<style type="text/css">
	.st0{fill:#FFFFFF;}
</style>
<g>
	<path class="st0" d="M31.25,16.11c4.17,0,8.33,0,12.5,0c0,8.33,0,16.65,0,25c18.77,0,37.51,0,56.25,0c0,4.13,0,8.27,0,12.4
		c-18.74,0-37.48,0-56.25,0c0,8.41,0,16.8,0,25.2c-4.17,0-8.33,0-12.5,0c0-8.39,0-16.78,0-25.2c-10.43,0-20.84,0-31.25,0
		c0-4.13,0-8.27,0-12.4c10.41,0,20.82,0,31.25,0C31.25,32.76,31.25,24.43,31.25,16.11z"/>
	<path d="M43.75,78.7c0-8.39,0-16.78,0-25.2c18.77,0,37.51,0,56.25,0c0,8.4,0,16.8,0,25.2C81.25,78.7,62.5,78.7,43.75,78.7z"/>
	<path d="M100,41.11c-18.74,0-37.48,0-56.25,0c0-8.35,0-16.67,0-25c18.75,0,37.5,0,56.25,0C100,24.44,100,32.77,100,41.11z"/>
	<path d="M0,53.51c10.41,0,20.82,0,31.25,0c0,8.41,0,16.8,0,25.2c-10.42,0-20.83,0-31.25,0C0,70.31,0,61.91,0,53.51z"/>
	<path d="M31.25,16.11c0,8.33,0,16.65,0,25c-10.43,0-20.84,0-31.25,0c0-8.33,0-16.67,0-25C10.42,16.11,20.83,16.11,31.25,16.11z"/>
</g>
</svg>
