<?xml version="1.0" encoding="utf-8"?>
<!-- Generator: Adobe Illustrator 27.0.1, SVG Export Plug-In . SVG Version: 6.00 Build 0)  -->
<svg version="1.1" id="Layer_1" xmlns="http://www.w3.org/2000/svg" xmlns:xlink="http://www.w3.org/1999/xlink" x="0px" y="0px"
	 viewBox="0 0 100 100" style="enable-background:new 0 0 100 100;" xml:space="preserve">
<style type="text/css">
	.st0{fill:none;}
	.st1{fill:#FFFFFF;}
	.st2{fill:#290F13;}
	.st3{fill:#290F14;}
</style>
<rect x="0.39" y="22.42" class="st0" width="99.61" height="49.81"/>
<path class="st1" d="M105.84,23.35C105.84,23.35,105.84,23.35,105.84,23.35L105.84,23.35c0,0.01,0,0.01,0,0.02
	c0.01-0.01,0.03-0.02,0.04-0.04c0,0-0.01,0-0.01,0C105.85,23.34,105.84,23.35,105.84,23.35z"/>
<path class="st2" d="M0.4,67.67c0,0-0.01,0.01-0.01,0.01L0.4,67.67C0.4,67.67,0.4,67.67,0.4,67.67z"/>
<path class="st3" d="M105.88,23.33c0.01,0,0.01-0.01,0.02-0.02C105.89,23.32,105.88,23.33,105.88,23.33
	C105.87,23.33,105.88,23.33,105.88,23.33z"/>
<path class="st3" d="M0.43,59.16c-0.01,0.01-0.02,0.02-0.03,0.03C0.4,59.19,0.42,59.17,0.43,59.16C0.43,59.16,0.43,59.16,0.43,59.16
	z"/>
<path class="st3" d="M0.42,63.43C0.42,63.43,0.42,63.43,0.42,63.43c-0.01-0.01-0.02-0.02-0.02-0.02C0.4,63.42,0.41,63.43,0.42,63.43
	z"/>
<g>
	<g>
		<path class="st1" d="M0,54.86c0-1.35,0-2.7,0-4.05c0.12,0,0.23-0.01,0.35-0.01c33.06,0,66.12,0,99.19,0c0.07,0,0.14,0,0.22,0
			c0.07,0,0.14-0.01,0.2-0.02c0.06-0.56,0.03-3.81-0.03-4c-0.01,0-0.02-0.01-0.03-0.01c-0.02,0-0.04-0.01-0.05-0.01
			c-19.85,0-39.7,0-59.56,0c-0.04,0-0.07,0-0.11,0c-0.02,0-0.04,0-0.05,0c-0.02,0-0.04-0.01-0.05-0.01c-0.01,0-0.02-0.01-0.02-0.01
			c-0.01-0.01-0.01-0.01-0.02-0.02c-0.06-0.44-0.04-3.83,0.03-4c0.01,0,0.02,0,0.03-0.01c0.01,0,0.02,0,0.03-0.01
			c0.01,0,0.02,0,0.03,0c0.02,0,0.04,0,0.05,0c0.02,0,0.04,0,0.05,0c19.79,0,39.58,0,59.37,0c0.04,0,0.07,0,0.11,0
			c0.03,0,0.05,0,0.08,0c0.01,0,0.02,0,0.03,0c0.01,0,0.02,0,0.03,0c0.01,0,0.02,0,0.03,0c0.01,0,0.02,0,0.03-0.01
			c0.01,0,0.02-0.01,0.02-0.01c0.01-0.01,0.01-0.01,0.04-0.04c0-1.3,0-2.62,0-3.97c-20.01,0-39.97,0-59.95,0c0-1.36,0-2.69,0-4.06
			c0.16,0,0.3,0,0.44,0c19.65,0,39.31,0,58.96,0c0.11,0,0.22,0,0.32,0c0.07,0,0.14-0.02,0.2-0.03c0.05-0.41,0.03-3.78-0.02-4.01
			c-19.96,0-39.92,0-59.88,0c-0.06-0.33-0.05-3.84,0.02-4.06c19.96,0,39.92,0,59.89,0c0-1.36,0-2.68,0-4.03c-0.14,0-0.27,0-0.39,0
			c-19.95,0-39.9,0-59.85,0.01c-13.13,0-26.26,0-39.39,0c-0.11,0-0.22-0.01-0.32-0.01c0.01-0.02,0.02-0.05,0.03-0.05
			c0.07,0,0.14,0,0.22,0c33.26,0,66.52,0,99.79,0c0,17.47,0,34.94,0,52.41c0,0.08,0.06,0.18-0.05,0.24c0-1.34,0-2.68,0-4.04
			c-0.17,0-0.3,0-0.44,0c-33.1,0-66.2,0-99.3,0c-0.08,0-0.16-0.01-0.24-0.01c0-1.35,0-2.7,0-4.05c0.17,0,0.34,0,0.51,0
			c32.99,0,65.98,0,98.97,0c0.09,0,0.18,0,0.27,0c0.07,0,0.14-0.01,0.2-0.02c0-1.34,0-2.66,0-4c-0.15,0-0.29,0-0.42,0
			c-6.88,0-13.77,0-20.65,0c-26.12,0-52.25,0-78.37,0c-0.17,0-0.34,0.01-0.51,0.02c0-1.37,0-2.74,0-4.11
			c0.16,0.01,0.32,0.03,0.48,0.03c33.01,0,66.02,0,99.03,0c0.08,0,0.16,0,0.24,0c0.07,0,0.14-0.02,0.2-0.02c0-1.34,0-2.66,0-4
			c-0.15,0-0.28,0-0.42,0c-33.04,0-66.09,0-99.13,0C0.27,54.86,0.14,54.86,0,54.86z"/>
		<path d="M-0.02,22.45c0.11,0,0.22,0.01,0.32,0.01c13.13,0,26.26,0,39.39,0c19.95,0,39.9,0,59.85-0.01c0.12,0,0.25,0,0.39,0
			c0,1.35,0,2.68,0,4.03c-19.97,0-39.93,0-59.89,0c-0.07,0.22-0.08,3.74-0.02,4.06c19.96,0,39.92,0,59.88,0
			c0.06,0.22,0.07,3.6,0.02,4.01c-0.06,0.01-0.13,0.02-0.2,0.03c-0.11,0-0.22,0-0.32,0c-19.65,0-39.31,0-58.96,0
			c-0.14,0-0.28,0-0.44,0c0,1.37,0,2.7,0,4.06c19.98,0,39.94,0,59.95,0c0,1.35,0,2.67,0,3.97c-0.02,0.02-0.03,0.03-0.04,0.04
			c-0.01,0.01-0.01,0.01-0.02,0.01c-0.01,0-0.02,0-0.03,0.01c-0.01,0-0.02,0-0.03,0c-0.01,0-0.02,0-0.03,0s-0.02,0-0.03,0
			c-0.03,0-0.05,0-0.08,0c-0.04,0-0.07,0-0.11,0c-19.79,0-39.58,0-59.37,0c-0.02,0-0.04,0-0.05,0c-0.02,0-0.04,0-0.05,0
			c-0.01,0-0.02,0-0.03,0c-0.01,0-0.02,0-0.03,0.01c-0.01,0-0.02,0-0.03,0.01c-0.07,0.18-0.09,3.56-0.03,4
			c0.01,0.01,0.01,0.01,0.02,0.02c0.01,0.01,0.02,0.01,0.02,0.01c0.02,0,0.03,0.01,0.05,0.01c0.02,0,0.04,0,0.05,0
			c0.04,0,0.07,0,0.11,0c19.85,0,39.7,0,59.56,0c0.02,0,0.04,0,0.05,0.01c0.01,0,0.02,0,0.03,0.01c0.06,0.19,0.09,3.45,0.03,4
			c-0.06,0.01-0.13,0.02-0.2,0.02c-0.07,0-0.14,0-0.22,0c-33.06,0-66.12,0-99.19,0c-0.12,0-0.23,0.01-0.35,0.01
			C-0.02,41.34-0.02,31.9-0.02,22.45z M10.64,42.49c0.29-0.24,0.6-0.42,0.87-0.66c-0.01-0.02-0.02-0.05-0.02-0.07
			c-0.36,0-0.73,0-1.07,0c-0.16-0.36-0.21-0.71-0.4-1.08c-0.13,0.39-0.25,0.73-0.37,1.09c-0.37,0-0.72,0-1.08,0
			c-0.01,0.02-0.02,0.04-0.02,0.06c0.28,0.21,0.57,0.42,0.87,0.64c-0.11,0.36-0.22,0.7-0.33,1.05c0.01,0.01,0.03,0.02,0.04,0.03
			c0.3-0.21,0.59-0.42,0.89-0.64c0.31,0.22,0.6,0.43,0.9,0.64c0.01-0.01,0.03-0.02,0.04-0.03C10.86,43.19,10.75,42.85,10.64,42.49z
			 M13.38,26.56c-0.02,0-0.03,0-0.05,0c-0.12,0.34-0.23,0.69-0.36,1.06c-0.37,0-0.72,0-1.08,0c-0.01,0.02-0.01,0.04-0.02,0.06
			c0.29,0.21,0.58,0.43,0.87,0.64c-0.1,0.38-0.23,0.71-0.32,1.06c0.02,0.01,0.03,0.02,0.05,0.03c0.3-0.21,0.59-0.42,0.89-0.64
			c0.17,0.12,0.31,0.23,0.46,0.33c0.15,0.1,0.28,0.23,0.5,0.33c-0.11-0.33-0.19-0.59-0.28-0.85c-0.08-0.25-0.08-0.25,0.14-0.42
			c0.17-0.13,0.35-0.25,0.52-0.38c0.04-0.03,0.08-0.08,0.17-0.17c-0.42,0-0.77,0-1.14,0C13.62,27.24,13.5,26.9,13.38,26.56z
			 M20.63,28.32c0.31-0.23,0.59-0.43,0.91-0.67c-0.41-0.09-0.78,0.01-1.15-0.07c-0.12-0.34-0.23-0.69-0.35-1.03
			c-0.02,0-0.04,0.01-0.05,0.01c-0.11,0.34-0.22,0.68-0.34,1.02c-0.37,0.07-0.74-0.02-1.16,0.06c0.33,0.24,0.62,0.46,0.9,0.67
			c-0.07,0.38-0.25,0.7-0.3,1.12c0.34-0.24,0.63-0.45,0.93-0.66c0.31,0.22,0.6,0.43,0.9,0.64c0.01-0.01,0.03-0.02,0.04-0.03
			C20.86,29.03,20.75,28.68,20.63,28.32z M23.35,42.93c0.32,0.23,0.61,0.43,0.9,0.64c0.01-0.01,0.03-0.02,0.04-0.03
			c-0.11-0.35-0.21-0.69-0.32-1.05c0.3-0.22,0.59-0.44,0.87-0.65c-0.01-0.02-0.01-0.04-0.02-0.06c-0.36-0.01-0.72-0.01-1.09-0.02
			c-0.12-0.36-0.24-0.69-0.35-1.02c-0.02,0-0.04,0-0.06,0c-0.11,0.34-0.23,0.67-0.35,1.04c-0.37,0-0.73,0-1.09,0
			c0,0.02-0.01,0.04-0.01,0.06c0.29,0.22,0.59,0.43,0.87,0.64c-0.08,0.38-0.25,0.71-0.27,1.08C22.76,43.35,23.05,43.15,23.35,42.93z
			 M28.56,36.09c-0.01,0.02-0.01,0.04-0.02,0.06c0.29,0.22,0.58,0.43,0.88,0.66c-0.11,0.36-0.22,0.71-0.33,1.06
			c0.02,0.01,0.03,0.02,0.05,0.03c0.3-0.21,0.59-0.43,0.89-0.64c0.32,0.2,0.59,0.45,0.94,0.59c-0.11-0.35-0.22-0.69-0.33-1.04
			c0.17-0.13,0.32-0.23,0.46-0.34c0.14-0.11,0.32-0.18,0.44-0.39c-0.41,0-0.77,0-1.13,0c-0.12-0.36-0.23-0.7-0.35-1.04
			c-0.02,0-0.04,0-0.05,0.01c-0.11,0.34-0.23,0.68-0.35,1.05C29.28,36.09,28.92,36.09,28.56,36.09z M37.08,41.78
			c-0.17-0.37-0.22-0.74-0.41-1.1c-0.13,0.39-0.24,0.73-0.36,1.07c-0.37,0.06-0.74-0.02-1.15,0.06c0.33,0.25,0.62,0.46,0.91,0.68
			c-0.11,0.36-0.22,0.7-0.32,1.05c0.02,0.01,0.03,0.02,0.05,0.03c0.3-0.21,0.59-0.42,0.88-0.63c0.33,0.21,0.6,0.45,0.91,0.63
			c0.01-0.01,0.03-0.03,0.04-0.04c-0.11-0.34-0.22-0.68-0.33-1.03c0.3-0.22,0.59-0.44,0.88-0.65c-0.01-0.02-0.01-0.04-0.02-0.06
			C37.8,41.78,37.44,41.78,37.08,41.78z M29.09,43.53c0.02,0.01,0.04,0.02,0.06,0.03c0.29-0.21,0.58-0.42,0.87-0.63
			c0.31,0.22,0.6,0.43,0.9,0.64c0.01-0.01,0.03-0.03,0.04-0.04c-0.11-0.35-0.22-0.69-0.33-1.05c0.3-0.22,0.59-0.43,0.87-0.65
			c-0.01-0.02-0.01-0.05-0.02-0.07c-0.36,0-0.73,0-1.08,0c-0.07-0.21-0.12-0.38-0.18-0.55c-0.06-0.17-0.11-0.34-0.17-0.5
			c-0.02,0-0.03,0-0.05,0c-0.12,0.34-0.23,0.69-0.36,1.05c-0.19,0-0.37-0.01-0.55,0c-0.18,0.01-0.37-0.05-0.57,0.06
			c0.31,0.23,0.6,0.44,0.89,0.66C29.3,42.85,29.19,43.19,29.09,43.53z M2.98,41.77c-0.19,0-0.37-0.01-0.55,0
			c-0.18,0.01-0.37-0.05-0.57,0.06c0.31,0.23,0.59,0.44,0.89,0.66c-0.11,0.36-0.22,0.71-0.33,1.05c0.01,0.01,0.03,0.02,0.04,0.03
			c0.3-0.21,0.59-0.42,0.89-0.63c0.32,0.2,0.59,0.45,0.94,0.59c-0.11-0.35-0.21-0.69-0.32-1.04c0.17-0.12,0.31-0.23,0.45-0.33
			c0.14-0.1,0.28-0.21,0.42-0.31c-0.01-0.02-0.02-0.05-0.02-0.07c-0.36,0-0.73,0-1.08,0c-0.12-0.38-0.24-0.71-0.35-1.05
			c-0.02,0-0.03,0-0.05,0C3.22,41.06,3.11,41.4,2.98,41.77z M10.06,35.06c-0.02,0-0.04,0-0.06,0c-0.11,0.34-0.23,0.68-0.35,1.03
			c-0.19,0-0.37-0.01-0.55,0c-0.18,0.01-0.37-0.04-0.58,0.05c0.31,0.23,0.6,0.44,0.9,0.66c-0.11,0.36-0.22,0.71-0.33,1.05
			c0.01,0.01,0.03,0.02,0.04,0.03c0.3-0.21,0.59-0.42,0.9-0.63c0.31,0.22,0.6,0.43,0.9,0.64c0.01-0.01,0.03-0.03,0.04-0.04
			c-0.11-0.35-0.22-0.69-0.33-1.05c0.16-0.12,0.31-0.22,0.45-0.33c0.14-0.11,0.32-0.18,0.45-0.39c-0.41,0-0.78,0-1.14,0
			C10.28,35.72,10.17,35.39,10.06,35.06z M3.74,47.43c-0.13-0.37-0.24-0.71-0.35-1.05c-0.02,0-0.03,0-0.05,0
			c-0.12,0.35-0.23,0.69-0.36,1.06c-0.37,0-0.73,0-1.1,0c-0.01,0.02-0.01,0.04-0.02,0.05c0.29,0.22,0.58,0.43,0.88,0.65
			c-0.07,0.37-0.25,0.7-0.26,1.08c0.29-0.21,0.58-0.41,0.88-0.63c0.3,0.21,0.6,0.42,0.89,0.63c0.01-0.01,0.03-0.03,0.04-0.04
			c-0.11-0.35-0.22-0.69-0.32-1.04c0.17-0.12,0.32-0.22,0.46-0.33c0.14-0.11,0.32-0.18,0.43-0.38C4.47,47.43,4.11,47.43,3.74,47.43z
			 M24.24,37.88c0.02-0.01,0.03-0.03,0.05-0.04c-0.11-0.35-0.22-0.7-0.32-1.04c0.31-0.23,0.59-0.44,0.88-0.65
			c-0.01-0.02-0.01-0.04-0.02-0.06c-0.36,0-0.72,0-1.08,0c-0.13-0.37-0.24-0.7-0.35-1.03c-0.02,0-0.04,0-0.06,0
			c-0.11,0.34-0.23,0.67-0.35,1.03c-0.37,0-0.73,0-1.09,0c-0.01,0.02-0.01,0.04-0.02,0.06c0.29,0.22,0.58,0.43,0.88,0.65
			c-0.11,0.36-0.22,0.71-0.33,1.05c0.02,0.01,0.03,0.02,0.05,0.03c0.3-0.21,0.59-0.42,0.89-0.64
			C23.66,37.47,23.95,37.68,24.24,37.88z M33.96,28.31c0.17-0.12,0.31-0.22,0.46-0.33c0.14-0.1,0.29-0.19,0.42-0.32
			c-0.05-0.03-0.06-0.04-0.08-0.04c-0.22,0-0.43,0-0.65-0.01c-0.44,0-0.36,0.04-0.49-0.36c-0.07-0.23-0.15-0.45-0.23-0.67
			c-0.02,0-0.04,0-0.06,0c-0.11,0.34-0.23,0.67-0.35,1.02c-0.36,0.05-0.73-0.02-1.14,0.05c0.34,0.25,0.62,0.46,0.9,0.67
			c-0.11,0.36-0.22,0.71-0.33,1.05c0.02,0.01,0.03,0.02,0.05,0.03c0.3-0.21,0.6-0.42,0.9-0.63c0.3,0.22,0.59,0.42,0.88,0.63
			c0.02-0.01,0.04-0.03,0.06-0.04C34.18,29.01,34.08,28.67,33.96,28.31z M7.58,29.39c0.02-0.01,0.03-0.02,0.05-0.03
			c-0.11-0.35-0.21-0.69-0.32-1.04c0.3-0.23,0.58-0.44,0.87-0.65c-0.01-0.02-0.01-0.04-0.02-0.06c-0.36,0-0.71,0-1.08,0
			c-0.12-0.36-0.24-0.7-0.35-1.04c-0.02,0-0.04,0-0.06,0c-0.11,0.34-0.22,0.67-0.34,1.01c-0.38,0.07-0.75-0.02-1.16,0.06
			c0.33,0.25,0.63,0.46,0.92,0.68c-0.12,0.37-0.23,0.7-0.33,1.04c0.02,0.01,0.03,0.02,0.05,0.04c0.3-0.21,0.59-0.42,0.89-0.64
			C7,28.98,7.29,29.19,7.58,29.39z M27.08,27.6c-0.16-0.35-0.21-0.72-0.41-1.09c-0.08,0.26-0.14,0.46-0.21,0.65
			c-0.18,0.51-0.04,0.43-0.6,0.44c-0.21,0-0.42,0-0.64,0c-0.01,0.02-0.01,0.04-0.02,0.06c0.29,0.22,0.58,0.43,0.87,0.65
			c-0.11,0.36-0.22,0.7-0.32,1.03c0.02,0.01,0.03,0.02,0.05,0.03c0.29-0.21,0.58-0.41,0.88-0.63c0.3,0.22,0.6,0.43,0.89,0.64
			c0.02-0.01,0.03-0.02,0.05-0.04c-0.11-0.35-0.22-0.69-0.33-1.05c0.16-0.12,0.31-0.22,0.45-0.33c0.14-0.11,0.31-0.19,0.45-0.39
			C27.79,27.6,27.43,27.6,27.08,27.6z M16.73,40.74c-0.02,0-0.05,0-0.07-0.01c-0.11,0.34-0.23,0.67-0.34,1
			c-0.37,0.07-0.74-0.02-1.15,0.07c0.33,0.25,0.63,0.46,0.91,0.67c-0.09,0.38-0.25,0.69-0.31,1.1c0.34-0.24,0.63-0.45,0.93-0.66
			c0.31,0.22,0.6,0.42,0.89,0.63c0.02-0.01,0.03-0.02,0.05-0.03c-0.11-0.35-0.21-0.69-0.32-1.04c0.3-0.22,0.59-0.44,0.92-0.68
			c-0.14-0.01-0.2-0.03-0.27-0.03c-0.23,0-0.45-0.01-0.68,0c-0.16,0.01-0.24-0.05-0.29-0.21C16.92,41.29,16.82,41.02,16.73,40.74z
			 M30.4,47.43c-0.13-0.37-0.24-0.71-0.35-1.05c-0.02,0-0.03,0-0.05,0c-0.11,0.34-0.23,0.69-0.35,1.05c-0.2,0-0.38-0.01-0.57,0
			c-0.18,0.01-0.36-0.04-0.58,0.05c0.28,0.2,0.52,0.39,0.77,0.56c0.12,0.08,0.14,0.16,0.09,0.29c-0.08,0.22-0.15,0.44-0.22,0.67
			c-0.02,0.07-0.03,0.14-0.06,0.27c0.34-0.25,0.63-0.46,0.93-0.67c0.3,0.21,0.6,0.42,0.9,0.63c0.01-0.01,0.03-0.02,0.04-0.04
			c-0.11-0.35-0.22-0.69-0.32-1.03c0.29-0.26,0.62-0.43,0.85-0.73C31.13,47.43,30.77,47.43,30.4,47.43z M8.57,47.44
			c-0.01,0.02-0.02,0.04-0.02,0.07c0.29,0.21,0.57,0.42,0.87,0.64c-0.08,0.36-0.25,0.69-0.31,1.11c0.33-0.24,0.62-0.45,0.92-0.66
			c0.3,0.22,0.6,0.43,0.9,0.64c0.02-0.01,0.03-0.02,0.05-0.04c-0.11-0.35-0.22-0.69-0.33-1.04c0.29-0.25,0.61-0.42,0.88-0.67
			c-0.01-0.02-0.02-0.04-0.02-0.06c-0.36,0-0.73,0-1.08,0c-0.16-0.35-0.21-0.72-0.4-1.08c-0.13,0.4-0.25,0.74-0.37,1.09
			C9.28,47.44,8.92,47.44,8.57,47.44z M33.73,33.27c-0.12-0.37-0.24-0.7-0.35-1.04c-0.02,0-0.04,0-0.05-0.01
			c-0.12,0.34-0.23,0.69-0.36,1.05c-0.19,0-0.37-0.01-0.55,0c-0.18,0.01-0.37-0.04-0.58,0.05c0.33,0.24,0.62,0.46,0.9,0.67
			c-0.12,0.38-0.23,0.71-0.34,1.05c0.02,0.01,0.03,0.02,0.05,0.03c0.3-0.21,0.6-0.42,0.9-0.63c0.32,0.21,0.6,0.45,0.94,0.6
			c-0.11-0.35-0.22-0.7-0.33-1.06c0.16-0.11,0.31-0.21,0.44-0.33c0.14-0.11,0.32-0.18,0.43-0.38
			C34.46,33.27,34.11,33.27,33.73,33.27z M13.36,40.1c0.32,0.21,0.59,0.44,0.95,0.65c-0.04-0.14-0.05-0.2-0.07-0.27
			c-0.06-0.2-0.13-0.39-0.19-0.59c-0.08-0.23-0.08-0.24,0.11-0.38c0.17-0.12,0.34-0.24,0.5-0.37c0.07-0.05,0.13-0.11,0.2-0.16
			c-0.01-0.02-0.01-0.03-0.02-0.05c-0.36,0-0.73,0-1.1,0c-0.12-0.37-0.24-0.71-0.35-1.06c-0.02,0-0.04,0-0.05,0
			c-0.12,0.35-0.23,0.69-0.36,1.06c-0.37,0-0.73,0-1.09,0c-0.01,0.02-0.01,0.04-0.02,0.06c0.29,0.21,0.59,0.43,0.88,0.64
			c-0.09,0.37-0.25,0.7-0.33,1.12C12.76,40.53,13.05,40.32,13.36,40.1z M12.98,33.27c-0.21,0-0.39-0.01-0.57,0
			c-0.18,0.01-0.37-0.04-0.58,0.05c0.32,0.24,0.62,0.46,0.91,0.67c-0.06,0.2-0.12,0.37-0.17,0.54c-0.05,0.17-0.1,0.34-0.15,0.51
			c0.01,0.01,0.03,0.02,0.04,0.03c0.3-0.21,0.59-0.42,0.89-0.63c0.32,0.19,0.59,0.45,0.96,0.65c-0.08-0.25-0.14-0.44-0.2-0.63
			c-0.17-0.58-0.24-0.39,0.25-0.77c0.16-0.12,0.32-0.24,0.49-0.36c-0.01-0.02-0.01-0.04-0.02-0.05c-0.36,0-0.73,0-1.1,0
			c-0.12-0.36-0.24-0.71-0.36-1.05c-0.02,0-0.04,0-0.06,0C13.22,32.56,13.1,32.9,12.98,33.27z M20.01,32.19
			c-0.13,0.38-0.24,0.72-0.37,1.08c-0.36,0-0.72,0-1.08,0c-0.01,0.02-0.01,0.04-0.02,0.06c0.29,0.22,0.58,0.43,0.87,0.66
			c-0.11,0.36-0.22,0.71-0.33,1.05c0.02,0.01,0.03,0.02,0.05,0.03c0.3-0.21,0.59-0.42,0.89-0.63c0.32,0.2,0.59,0.45,0.9,0.62
			c0.01-0.01,0.03-0.03,0.04-0.04c-0.11-0.34-0.21-0.68-0.33-1.03c0.16-0.12,0.32-0.22,0.46-0.34c0.14-0.11,0.33-0.17,0.43-0.39
			c-0.4,0-0.76,0-1.12,0C20.24,32.91,20.2,32.54,20.01,32.19z M18.57,38.94c-0.01,0.02-0.01,0.04-0.02,0.06
			c0.04,0.04,0.09,0.08,0.13,0.12c0.17,0.13,0.35,0.25,0.52,0.38c0.21,0.15,0.21,0.15,0.13,0.39c-0.07,0.22-0.14,0.44-0.21,0.67
			c-0.02,0.05-0.02,0.11-0.03,0.21c0.34-0.24,0.64-0.45,0.94-0.67c0.31,0.2,0.59,0.44,0.93,0.59c-0.11-0.34-0.21-0.68-0.32-1.03
			c0.3-0.22,0.59-0.44,0.88-0.65c-0.01-0.02-0.02-0.04-0.02-0.06c-0.36,0-0.72,0-1.09,0c-0.13-0.37-0.24-0.72-0.36-1.06
			c-0.02,0-0.03,0-0.05,0c-0.12,0.35-0.23,0.69-0.35,1.06C19.28,38.94,18.92,38.94,18.57,38.94z M24.24,49.23
			c0.02-0.01,0.03-0.02,0.05-0.03c-0.11-0.35-0.21-0.69-0.32-1.04c0.29-0.25,0.61-0.42,0.87-0.67c-0.01-0.02-0.02-0.04-0.02-0.06
			c-0.36,0-0.72,0-1.09,0c-0.12-0.37-0.23-0.7-0.34-1.04c-0.02,0-0.04,0-0.05,0c-0.12,0.34-0.23,0.69-0.36,1.06
			c-0.37,0-0.73,0-1.09,0c-0.01,0.02-0.01,0.04-0.02,0.06c0.3,0.22,0.59,0.44,0.88,0.66c-0.11,0.37-0.22,0.71-0.33,1.04
			c0.01,0.01,0.03,0.02,0.04,0.03c0.3-0.21,0.59-0.42,0.9-0.63C23.66,48.81,23.95,49.02,24.24,49.23z M32.97,38.95
			c-0.37,0-0.73,0-1.08,0c-0.01,0.02-0.01,0.03-0.02,0.05c0.29,0.22,0.58,0.43,0.86,0.64c-0.09,0.38-0.26,0.7-0.32,1.12
			c0.35-0.25,0.65-0.46,0.95-0.67c0.3,0.22,0.59,0.42,0.88,0.63c0.02-0.01,0.04-0.02,0.05-0.03c-0.11-0.35-0.22-0.69-0.33-1.05
			c0.16-0.11,0.31-0.21,0.44-0.33c0.14-0.11,0.32-0.18,0.44-0.39c-0.39,0-0.75,0-1.11,0c-0.12-0.36-0.23-0.7-0.35-1.04
			c-0.02,0-0.04,0-0.06,0C33.21,38.24,33.1,38.58,32.97,38.95z M26.07,33.98c-0.08,0.36-0.25,0.69-0.31,1.1
			c0.34-0.24,0.63-0.45,0.93-0.66c0.31,0.22,0.6,0.43,0.89,0.64c0.02-0.01,0.03-0.02,0.05-0.03c-0.11-0.35-0.22-0.69-0.33-1.04
			c0.29-0.24,0.6-0.43,0.88-0.66c-0.01-0.02-0.02-0.04-0.02-0.06c-0.36,0-0.73,0-1.09,0c-0.12-0.37-0.23-0.7-0.35-1.04
			c-0.02,0-0.04,0-0.06,0c-0.11,0.34-0.23,0.69-0.35,1.05c-0.38,0-0.73,0-1.09,0c-0.01,0.02-0.01,0.04-0.02,0.05
			C25.49,33.55,25.78,33.76,26.07,33.98z M6.73,32.24c-0.02,0-0.04,0-0.06-0.01c-0.12,0.34-0.23,0.69-0.36,1.05
			c-0.37,0-0.73,0-1.09,0c-0.01,0.02-0.01,0.03-0.02,0.05c0.28,0.24,0.61,0.43,0.88,0.67c-0.11,0.36-0.22,0.7-0.32,1.04
			c0.02,0.01,0.03,0.02,0.05,0.03c0.3-0.21,0.59-0.42,0.89-0.63c0.32,0.21,0.59,0.44,0.89,0.62c0.01-0.01,0.03-0.03,0.04-0.04
			c-0.11-0.34-0.21-0.68-0.32-1.03c0.29-0.24,0.6-0.42,0.87-0.66c-0.01-0.02-0.02-0.04-0.02-0.05c-0.36,0-0.71,0-1.08,0
			C6.96,32.92,6.84,32.58,6.73,32.24z M36.67,48.6c0.33,0.2,0.6,0.44,0.95,0.59c-0.11-0.35-0.22-0.69-0.33-1.03
			c0.29-0.25,0.61-0.43,0.88-0.67c-0.01-0.02-0.01-0.04-0.02-0.05c-0.36,0-0.73,0-1.09,0c-0.15-0.36-0.22-0.72-0.4-1.09
			c-0.13,0.4-0.25,0.74-0.37,1.11c-0.37,0-0.73,0-1.09,0c-0.01,0.02-0.01,0.04-0.02,0.06c0.29,0.22,0.58,0.43,0.87,0.64
			c-0.07,0.37-0.26,0.7-0.3,1.11C36.09,49.01,36.37,48.81,36.67,48.6z M29.41,25.49c-0.11,0.35-0.21,0.7-0.32,1.04
			c0.02,0.01,0.03,0.02,0.05,0.03c0.29-0.21,0.58-0.42,0.88-0.63c0.3,0.22,0.6,0.43,0.89,0.64c0.02-0.01,0.03-0.03,0.05-0.04
			c-0.11-0.35-0.22-0.7-0.32-1.04c0.29-0.26,0.62-0.43,0.92-0.73c-0.43,0-0.79,0-1.16,0c-0.12-0.36-0.24-0.7-0.35-1.04
			c-0.02,0-0.03,0-0.05,0c-0.12,0.35-0.23,0.69-0.35,1.05c-0.38,0-0.74,0-1.1,0c-0.01,0.02-0.01,0.03-0.02,0.05
			C28.81,25.05,29.11,25.27,29.41,25.49z M2.42,26.54c0.01,0.01,0.03,0.02,0.04,0.03c0.3-0.21,0.59-0.42,0.89-0.64
			c0.3,0.22,0.6,0.43,0.89,0.64c0.01-0.01,0.03-0.02,0.04-0.04c-0.11-0.35-0.22-0.69-0.32-1.03c0.29-0.26,0.62-0.43,0.92-0.73
			c-0.42,0-0.79,0-1.15,0c-0.12-0.36-0.24-0.7-0.35-1.04c-0.02,0-0.04,0.01-0.05,0.01c-0.11,0.34-0.23,0.68-0.35,1.03
			c-0.19,0-0.38-0.01-0.57,0c-0.18,0.01-0.36-0.04-0.58,0.04c0.32,0.23,0.61,0.45,0.91,0.67C2.64,25.84,2.53,26.19,2.42,26.54z
			 M11.52,24.84c-0.01-0.02-0.02-0.05-0.02-0.07c-0.37,0-0.73,0-1.1,0c-0.12-0.36-0.23-0.7-0.34-1.03c-0.02,0-0.04,0-0.06,0.01
			c-0.12,0.34-0.23,0.69-0.35,1.03c-0.38,0.03-0.75-0.01-1.1,0.02c0,0.02-0.01,0.04-0.01,0.05c0.29,0.21,0.58,0.42,0.88,0.65
			c-0.11,0.35-0.22,0.7-0.33,1.04c0.02,0.01,0.03,0.03,0.05,0.04c0.29-0.21,0.59-0.42,0.89-0.64c0.31,0.22,0.6,0.43,0.9,0.64
			c0.02-0.01,0.03-0.02,0.05-0.03c-0.11-0.35-0.22-0.69-0.34-1.05C10.93,25.27,11.23,25.05,11.52,24.84z M22.98,24.78
			c-0.38,0-0.74,0-1.1,0c-0.01,0.02-0.01,0.03-0.02,0.05c0.29,0.22,0.59,0.43,0.89,0.65c-0.11,0.36-0.22,0.7-0.33,1.05
			c0.02,0.01,0.03,0.02,0.05,0.03c0.29-0.21,0.58-0.42,0.88-0.63c0.3,0.22,0.6,0.43,0.89,0.64c0.02-0.01,0.03-0.02,0.05-0.04
			c-0.11-0.35-0.22-0.7-0.32-1.04c0.29-0.24,0.61-0.42,0.88-0.67c-0.01-0.02-0.01-0.04-0.02-0.06c-0.36,0-0.73,0-1.09,0
			c-0.12-0.36-0.23-0.7-0.34-1.04c-0.02,0-0.04,0-0.06,0C23.22,24.07,23.1,24.41,22.98,24.78z M17.3,48.15
			c0.17-0.12,0.32-0.22,0.46-0.34c0.14-0.11,0.33-0.17,0.42-0.38c-0.39,0-0.75,0-1.12,0c-0.06-0.18-0.11-0.36-0.18-0.52
			c-0.06-0.17-0.08-0.36-0.23-0.52c-0.12,0.37-0.24,0.7-0.36,1.06c-0.38,0-0.73,0-1.08,0c-0.01,0.02-0.01,0.04-0.02,0.06
			c0.29,0.21,0.58,0.43,0.87,0.64c-0.07,0.37-0.25,0.7-0.32,1.12c0.35-0.25,0.64-0.46,0.93-0.67c0.32,0.22,0.6,0.43,0.89,0.63
			c0.02-0.01,0.03-0.03,0.05-0.04C17.52,48.84,17.41,48.5,17.3,48.15z M27.3,39.66c0.29-0.25,0.61-0.42,0.92-0.72
			c-0.43,0-0.79,0-1.15,0c-0.16-0.35-0.21-0.72-0.4-1.1c-0.13,0.4-0.25,0.74-0.37,1.11c-0.37,0-0.73,0-1.09,0
			c-0.01,0.02-0.01,0.04-0.02,0.05c0.29,0.21,0.59,0.43,0.87,0.64c-0.08,0.38-0.25,0.71-0.32,1.12c0.35-0.25,0.65-0.46,0.94-0.67
			c0.31,0.22,0.6,0.43,0.89,0.64c0.02-0.01,0.03-0.02,0.05-0.03C27.52,40.36,27.41,40.02,27.3,39.66z M7.58,40.72
			c0.02-0.01,0.04-0.02,0.06-0.03C7.53,40.35,7.42,40,7.31,39.65c0.29-0.24,0.61-0.42,0.87-0.66c-0.01-0.02-0.02-0.03-0.02-0.05
			c-0.36,0-0.71,0-1.08,0c-0.12-0.36-0.23-0.7-0.35-1.04c-0.02,0-0.04,0-0.06,0c-0.12,0.34-0.23,0.69-0.35,1.03
			c-0.38,0.04-0.74-0.02-1.16,0.04c0.34,0.25,0.64,0.47,0.92,0.68c-0.08,0.38-0.25,0.7-0.32,1.11c0.34-0.24,0.63-0.45,0.94-0.67
			C7,40.31,7.29,40.52,7.58,40.72z M36.68,25.93c0.31,0.22,0.61,0.43,0.9,0.64c0.02-0.01,0.03-0.03,0.05-0.04
			c-0.11-0.35-0.22-0.69-0.33-1.04c0.29-0.25,0.61-0.43,0.88-0.67c-0.01-0.02-0.01-0.04-0.02-0.05c-0.36,0-0.73,0-1.09,0
			c-0.15-0.36-0.21-0.72-0.4-1.09c-0.13,0.4-0.25,0.75-0.37,1.11c-0.38,0-0.73,0-1.08,0c-0.01,0.02-0.02,0.04-0.02,0.05
			c0.29,0.21,0.58,0.43,0.88,0.65c-0.11,0.36-0.22,0.71-0.33,1.05c0.02,0.01,0.03,0.02,0.05,0.03
			C36.08,26.36,36.37,26.15,36.68,25.93z M13.39,43.56c-0.02,0-0.04,0-0.06,0c-0.12,0.34-0.23,0.69-0.35,1.04
			c-0.2,0-0.38-0.01-0.56,0c-0.18,0.01-0.36-0.04-0.57,0.05c0.32,0.23,0.6,0.44,0.9,0.66c-0.11,0.36-0.22,0.71-0.33,1.06
			c0.01,0.01,0.03,0.02,0.04,0.03c0.3-0.21,0.59-0.43,0.9-0.64c0.31,0.22,0.6,0.43,0.9,0.64c0.01-0.01,0.03-0.02,0.04-0.03
			c-0.11-0.35-0.21-0.7-0.32-1.06c0.15-0.11,0.3-0.21,0.44-0.33c0.14-0.11,0.32-0.18,0.44-0.38c-0.4,0-0.75,0-1.12,0
			C13.62,44.24,13.5,43.9,13.39,43.56z M19.39,45.3c-0.04,0.38-0.25,0.71-0.3,1.12c0.34-0.24,0.64-0.46,0.93-0.66
			c0.32,0.21,0.6,0.45,0.94,0.6c-0.11-0.35-0.22-0.7-0.33-1.04c0.31-0.23,0.59-0.44,0.88-0.65c-0.01-0.02-0.01-0.04-0.02-0.05
			c-0.36,0-0.72,0-1.09,0c-0.12-0.37-0.24-0.72-0.35-1.06c-0.02,0-0.04,0-0.05,0.01c-0.12,0.35-0.24,0.69-0.36,1.06
			c-0.37,0-0.72,0-1.08,0c-0.01,0.02-0.01,0.04-0.02,0.05C18.82,44.88,19.11,45.09,19.39,45.3z M16.31,24.78c-0.38,0-0.73,0-1.09,0
			c-0.01,0.02-0.01,0.03-0.02,0.05c0.29,0.22,0.58,0.43,0.88,0.65c-0.11,0.36-0.22,0.71-0.32,1.05c0.02,0.01,0.03,0.02,0.05,0.03
			c0.3-0.21,0.59-0.42,0.88-0.63c0.31,0.22,0.6,0.43,0.89,0.63c0.02-0.01,0.03-0.02,0.05-0.03c-0.11-0.35-0.21-0.69-0.32-1.04
			c0.29-0.25,0.61-0.42,0.87-0.67c-0.01-0.02-0.02-0.03-0.02-0.05c-0.36,0-0.71,0-1.08,0c-0.12-0.36-0.24-0.7-0.35-1.04
			c-0.02,0-0.04,0-0.06,0C16.55,24.08,16.43,24.41,16.31,24.78z M24.84,30.5c-0.01-0.02-0.01-0.04-0.02-0.06c-0.36,0-0.72,0-1.08,0
			c-0.13-0.37-0.24-0.71-0.36-1.05c-0.02,0-0.04,0-0.05,0c-0.12,0.34-0.24,0.69-0.36,1.04c-0.2,0-0.38-0.01-0.56,0
			c-0.18,0.01-0.36-0.04-0.57,0.05c0.31,0.23,0.6,0.44,0.89,0.66c-0.11,0.36-0.22,0.71-0.33,1.06c0.01,0.01,0.03,0.02,0.04,0.03
			c0.3-0.21,0.6-0.42,0.9-0.64c0.31,0.22,0.6,0.43,0.91,0.64c0.01-0.06,0.02-0.07,0.02-0.09c-0.06-0.21-0.12-0.41-0.19-0.62
			c-0.15-0.45-0.17-0.35,0.2-0.62C24.47,30.78,24.66,30.64,24.84,30.5z M17.08,30.45c-0.16-0.36-0.21-0.72-0.41-1.1
			c-0.14,0.4-0.25,0.75-0.37,1.1c-0.2,0-0.38,0-0.56,0c-0.18,0-0.35,0-0.53,0c-0.01,0.02-0.01,0.04-0.02,0.06
			c0.29,0.22,0.58,0.43,0.87,0.65c-0.09,0.37-0.25,0.69-0.32,1.11c0.35-0.25,0.64-0.46,0.94-0.67c0.3,0.22,0.6,0.43,0.89,0.63
			c0.01-0.01,0.03-0.02,0.04-0.04c-0.11-0.35-0.21-0.69-0.32-1.05c0.16-0.12,0.31-0.22,0.45-0.33c0.14-0.11,0.32-0.18,0.43-0.37
			C17.8,30.45,17.45,30.45,17.08,30.45z M37.58,32.24c0.01-0.01,0.03-0.02,0.04-0.03c-0.11-0.35-0.22-0.69-0.33-1.05
			c0.3-0.22,0.59-0.43,0.88-0.65c-0.01-0.02-0.02-0.04-0.02-0.06c-0.36,0-0.73,0-1.08,0c-0.16-0.36-0.21-0.72-0.4-1.09
			c-0.13,0.4-0.25,0.74-0.37,1.11c-0.37,0-0.73,0-1.08,0c-0.01,0.02-0.01,0.03-0.02,0.05c0.29,0.21,0.57,0.42,0.87,0.64
			c-0.11,0.36-0.22,0.71-0.32,1.05c0.01,0.01,0.03,0.02,0.04,0.03c0.3-0.21,0.59-0.42,0.89-0.64
			C36.99,31.81,37.29,32.02,37.58,32.24z M10.41,30.45c-0.13-0.37-0.24-0.71-0.36-1.06c-0.02,0-0.04,0-0.06,0
			c-0.12,0.34-0.23,0.69-0.36,1.05c-0.19,0-0.37-0.01-0.55,0c-0.18,0.01-0.37-0.04-0.57,0.05c0.27,0.19,0.5,0.37,0.75,0.54
			c0.12,0.08,0.15,0.16,0.1,0.3c-0.09,0.24-0.16,0.48-0.24,0.72c-0.02,0.05-0.01,0.11-0.02,0.21c0.33-0.24,0.62-0.45,0.92-0.66
			c0.3,0.22,0.6,0.43,0.9,0.64c0.01-0.01,0.03-0.02,0.04-0.03c-0.11-0.35-0.22-0.7-0.33-1.05c0.28-0.25,0.61-0.42,0.9-0.71
			C11.14,30.45,10.79,30.45,10.41,30.45z M29.09,32.2c0.01,0.01,0.03,0.02,0.04,0.03c0.3-0.21,0.59-0.42,0.89-0.64
			c0.31,0.22,0.6,0.43,0.95,0.68c-0.09-0.43-0.27-0.77-0.33-1.13c0.28-0.25,0.6-0.42,0.85-0.66c-0.01-0.02-0.02-0.04-0.03-0.05
			c-0.36,0-0.71,0-1.07,0c-0.12-0.36-0.24-0.7-0.36-1.05c-0.02,0-0.04,0-0.06,0.01c-0.12,0.35-0.23,0.69-0.35,1.06
			c-0.37,0-0.73,0-1.08,0c-0.01,0.02-0.01,0.04-0.02,0.05c0.29,0.21,0.57,0.42,0.87,0.65C29.3,31.51,29.19,31.85,29.09,32.2z
			 M34.25,46.4c0.02-0.01,0.03-0.02,0.05-0.03c-0.11-0.35-0.22-0.71-0.32-1.06c0.3-0.23,0.58-0.43,0.86-0.64
			c-0.01-0.02-0.01-0.03-0.02-0.05c-0.35,0-0.71,0-1.07,0c-0.12-0.37-0.24-0.71-0.36-1.06c-0.02,0-0.04,0-0.06,0
			c-0.12,0.35-0.24,0.7-0.36,1.04c-0.38,0.03-0.73-0.01-1.15,0.03c0.35,0.26,0.63,0.47,0.91,0.67c-0.09,0.38-0.25,0.71-0.32,1.06
			c0.02,0.01,0.03,0.02,0.05,0.03c0.29-0.21,0.58-0.42,0.88-0.64C33.66,45.97,33.95,46.18,34.25,46.4z M4.25,32.24
			c0.02-0.01,0.03-0.02,0.05-0.03c-0.11-0.35-0.22-0.69-0.33-1.05c0.28-0.24,0.6-0.42,0.87-0.66c-0.01-0.02-0.02-0.04-0.02-0.05
			c-0.36,0-0.71,0-1.07,0c-0.12-0.36-0.24-0.71-0.36-1.05c-0.02,0-0.04,0-0.05,0c-0.12,0.35-0.23,0.69-0.35,1.05
			c-0.19,0-0.37-0.01-0.55,0c-0.18,0.01-0.37-0.04-0.57,0.05c0.16,0.12,0.3,0.22,0.43,0.32c0.15,0.11,0.29,0.23,0.44,0.35
			c-0.05,0.17-0.1,0.34-0.15,0.51c-0.05,0.17-0.1,0.35-0.15,0.52c0.02,0.01,0.03,0.02,0.05,0.03c0.3-0.21,0.59-0.43,0.89-0.64
			C3.67,31.82,3.96,32.03,4.25,32.24z M8.18,44.67c-0.01-0.02-0.01-0.04-0.02-0.06c-0.36,0-0.71,0-1.08,0
			c-0.12-0.36-0.24-0.7-0.35-1.05c-0.02,0-0.04,0-0.06,0c-0.12,0.34-0.23,0.69-0.35,1.03c-0.38,0.03-0.74-0.01-1.16,0.03
			c0.35,0.26,0.64,0.47,0.93,0.68c-0.11,0.36-0.22,0.71-0.33,1.06c0.02,0.01,0.03,0.02,0.05,0.03c0.3-0.21,0.6-0.42,0.9-0.64
			c0.16,0.12,0.3,0.22,0.45,0.33c0.15,0.1,0.28,0.23,0.5,0.32c-0.12-0.4-0.23-0.75-0.34-1.09C7.61,45.09,7.89,44.88,8.18,44.67z
			 M27.08,44.62c-0.16-0.37-0.22-0.73-0.41-1.11c-0.14,0.41-0.25,0.75-0.37,1.09c-0.39,0.02-0.74-0.01-1.1,0.07
			c0.29,0.21,0.57,0.42,0.87,0.64c-0.11,0.36-0.22,0.71-0.32,1.05c0.01,0.01,0.03,0.02,0.04,0.03c0.3-0.21,0.59-0.42,0.89-0.63
			c0.31,0.22,0.6,0.43,0.9,0.63c0.01-0.01,0.03-0.03,0.04-0.04c-0.11-0.35-0.22-0.69-0.33-1.04c0.31-0.23,0.59-0.44,0.87-0.65
			c-0.01-0.02-0.01-0.03-0.02-0.05C27.8,44.62,27.45,44.62,27.08,44.62z M16.73,35.08c-0.02,0-0.04,0-0.06-0.01
			c-0.03,0.07-0.06,0.14-0.09,0.21c-0.07,0.21-0.15,0.43-0.21,0.64c-0.04,0.14-0.11,0.19-0.25,0.18c-0.24-0.01-0.49,0-0.73,0
			c-0.06,0-0.11,0.02-0.22,0.03c0.33,0.25,0.62,0.46,0.91,0.67c-0.11,0.36-0.22,0.71-0.33,1.05c0.02,0.01,0.03,0.02,0.05,0.03
			c0.3-0.21,0.59-0.42,0.89-0.64c0.31,0.22,0.6,0.43,0.89,0.63c0.02-0.01,0.03-0.02,0.05-0.03c-0.11-0.35-0.21-0.69-0.32-1.05
			c0.3-0.22,0.58-0.43,0.91-0.68c-0.12-0.02-0.18-0.03-0.24-0.03c-0.19,0-0.38,0-0.57,0c-0.42,0-0.33,0.01-0.45-0.32
			C16.88,35.55,16.81,35.31,16.73,35.08z M2.75,36.82c-0.11,0.37-0.22,0.71-0.33,1.06c0.01,0.01,0.03,0.02,0.04,0.03
			c0.3-0.21,0.6-0.42,0.9-0.64c0.31,0.22,0.6,0.43,0.9,0.65c0.01-0.01,0.03-0.02,0.04-0.03c-0.11-0.35-0.22-0.71-0.33-1.06
			c0.29-0.25,0.6-0.42,0.85-0.69c-0.2-0.03-0.39-0.02-0.57-0.03c-0.62-0.01-0.46,0.1-0.67-0.49c-0.07-0.19-0.13-0.39-0.19-0.58
			c-0.02,0-0.03,0-0.05,0c-0.12,0.35-0.24,0.71-0.36,1.05c-0.38,0.03-0.74-0.02-1.15,0.04C2.17,36.39,2.45,36.59,2.75,36.82z
			 M37.57,37.9c0.02-0.01,0.04-0.02,0.05-0.04c-0.11-0.35-0.22-0.69-0.33-1.04c0.3-0.22,0.58-0.43,0.86-0.64
			c-0.09-0.05-0.16-0.06-0.23-0.07c-0.2,0-0.4,0-0.59,0c-0.28,0-0.28,0-0.37-0.28c-0.07-0.21-0.13-0.41-0.2-0.61
			c-0.02-0.05-0.05-0.1-0.1-0.2c-0.1,0.31-0.19,0.57-0.28,0.84c-0.08,0.25-0.08,0.25-0.36,0.25c-0.22,0-0.43,0-0.65,0
			c-0.06,0-0.11,0.02-0.21,0.04c0.33,0.24,0.61,0.45,0.89,0.66c-0.07,0.37-0.24,0.69-0.3,1.04c0.02,0.01,0.03,0.02,0.05,0.03
			c0.29-0.21,0.58-0.41,0.87-0.62C36.99,37.48,37.28,37.69,37.57,37.9z"/>
		<path d="M0,71.03c0.08,0,0.16,0.01,0.24,0.01c33.1,0,66.2,0,99.3,0c0.13,0,0.27,0,0.44,0c0,1.36,0,2.7,0,4.04
			c-33.32,0-66.65,0-99.97,0C0,73.73,0,72.38,0,71.03z"/>
		<path d="M0,54.86c0.14,0,0.27,0,0.41,0c33.04,0,66.09,0,99.13,0c0.13,0,0.27,0,0.42,0c0,1.34,0,2.66,0,4
			c-0.07,0.01-0.14,0.02-0.2,0.02c-0.08,0-0.16,0-0.24,0c-33.01,0-66.02,0-99.03,0c-0.16,0-0.32-0.02-0.48-0.03
			C0,57.53,0,56.19,0,54.86z"/>
		<path d="M0,62.97c0.17-0.01,0.34-0.02,0.51-0.02c26.12,0,52.25,0,78.37,0c6.88,0,13.77,0,20.65,0c0.13,0,0.27,0,0.42,0
			c0,1.34,0,2.66,0,4c-0.07,0.01-0.14,0.02-0.2,0.02c-0.09,0-0.18,0-0.27,0c-32.99,0-65.98,0-98.97,0c-0.17,0-0.34,0-0.51,0
			C0,65.64,0,64.3,0,62.97z"/>
		<path class="st1" d="M10.66,42.51c0.11,0.36,0.22,0.7,0.33,1.04c-0.01,0.01-0.03,0.02-0.04,0.03c-0.3-0.21-0.59-0.42-0.9-0.64
			c-0.3,0.22-0.6,0.43-0.89,0.64c-0.01-0.01-0.03-0.02-0.04-0.03c0.11-0.35,0.22-0.69,0.33-1.05c-0.3-0.22-0.59-0.43-0.87-0.64
			c0.01-0.02,0.02-0.04,0.02-0.06c0.36,0,0.71,0,1.08,0c0.12-0.36,0.24-0.7,0.37-1.09c0.19,0.36,0.24,0.72,0.4,1.08
			c0.35,0,0.71,0,1.07,0c0.01,0.02,0.02,0.05,0.02,0.07C11.26,42.08,10.94,42.26,10.66,42.51z"/>
		<path class="st1" d="M13.4,26.57c0.12,0.34,0.23,0.69,0.35,1.05c0.36,0,0.72,0,1.14,0c-0.09,0.09-0.12,0.13-0.17,0.17
			c-0.17,0.13-0.35,0.25-0.52,0.38c-0.22,0.16-0.22,0.16-0.14,0.42c0.08,0.26,0.17,0.53,0.28,0.85c-0.22-0.1-0.35-0.23-0.5-0.33
			c-0.15-0.1-0.29-0.21-0.46-0.33c-0.3,0.21-0.59,0.42-0.89,0.64c-0.02-0.01-0.03-0.02-0.05-0.03c0.09-0.35,0.22-0.68,0.32-1.06
			c-0.28-0.21-0.58-0.42-0.87-0.64c0.01-0.02,0.01-0.04,0.02-0.06c0.35,0,0.71,0,1.08,0c0.13-0.37,0.24-0.71,0.36-1.06
			C13.37,26.57,13.38,26.57,13.4,26.57z"/>
		<path class="st1" d="M20.65,28.34c0.11,0.36,0.22,0.71,0.33,1.06c-0.01,0.01-0.03,0.02-0.04,0.03c-0.3-0.21-0.59-0.42-0.9-0.64
			c-0.3,0.21-0.59,0.42-0.93,0.66c0.05-0.41,0.24-0.74,0.3-1.12c-0.28-0.21-0.57-0.42-0.9-0.67c0.41-0.08,0.78,0.01,1.16-0.06
			c0.11-0.34,0.22-0.68,0.34-1.02c0.02,0,0.04-0.01,0.05-0.01c0.12,0.34,0.23,0.68,0.35,1.03c0.37,0.08,0.74-0.02,1.15,0.07
			C21.24,27.9,20.96,28.11,20.65,28.34z"/>
		<path class="st1" d="M23.37,42.95c-0.3,0.22-0.59,0.43-0.88,0.64c0.02-0.38,0.19-0.7,0.27-1.08c-0.29-0.21-0.58-0.43-0.87-0.64
			c0-0.02,0.01-0.04,0.01-0.06c0.36,0,0.72,0,1.09,0c0.12-0.37,0.24-0.7,0.35-1.04c0.02,0,0.04,0,0.06,0
			c0.11,0.33,0.23,0.66,0.35,1.02c0.36,0.01,0.72,0.01,1.09,0.02c0.01,0.02,0.01,0.04,0.02,0.06c-0.28,0.21-0.57,0.42-0.87,0.65
			c0.11,0.35,0.22,0.7,0.32,1.05c-0.01,0.01-0.03,0.02-0.04,0.03C23.98,43.38,23.69,43.18,23.37,42.95z"/>
		<path class="st1" d="M28.57,36.12c0.36,0,0.73,0,1.09,0c0.12-0.37,0.24-0.71,0.35-1.05c0.02,0,0.04,0,0.05-0.01
			c0.11,0.34,0.22,0.67,0.35,1.04c0.36,0,0.73,0,1.13,0c-0.12,0.21-0.3,0.28-0.44,0.39c-0.14,0.11-0.29,0.22-0.46,0.34
			c0.11,0.34,0.22,0.69,0.33,1.04c-0.35-0.14-0.62-0.39-0.94-0.59c-0.3,0.22-0.59,0.43-0.89,0.64c-0.02-0.01-0.03-0.02-0.05-0.03
			c0.11-0.35,0.21-0.69,0.33-1.06c-0.3-0.22-0.59-0.44-0.88-0.66C28.56,36.16,28.57,36.14,28.57,36.12z"/>
		<path class="st1" d="M37.09,41.8c0.37,0,0.72,0,1.08,0c0.01,0.02,0.01,0.04,0.02,0.06c-0.29,0.22-0.58,0.43-0.88,0.65
			c0.11,0.36,0.22,0.69,0.33,1.03c-0.01,0.01-0.03,0.03-0.04,0.04c-0.31-0.18-0.58-0.42-0.91-0.63c-0.29,0.21-0.59,0.42-0.88,0.63
			c-0.02-0.01-0.03-0.02-0.05-0.03c0.11-0.34,0.21-0.69,0.32-1.05c-0.29-0.22-0.58-0.43-0.91-0.68c0.42-0.08,0.78,0,1.15-0.06
			c0.11-0.34,0.23-0.68,0.36-1.07C36.88,41.07,36.93,41.43,37.09,41.8z"/>
		<path class="st1" d="M29.1,43.55c0.11-0.34,0.21-0.68,0.32-1.04c-0.29-0.22-0.58-0.43-0.89-0.66c0.2-0.11,0.39-0.05,0.57-0.06
			c0.18-0.01,0.36,0,0.55,0c0.12-0.36,0.24-0.71,0.36-1.05c0.02,0,0.03,0,0.05,0c0.06,0.17,0.12,0.34,0.17,0.5
			c0.06,0.17,0.11,0.34,0.18,0.55c0.36,0,0.72,0,1.08,0c0.01,0.02,0.01,0.05,0.02,0.07c-0.28,0.21-0.57,0.42-0.87,0.65
			c0.11,0.35,0.22,0.7,0.33,1.05c-0.01,0.01-0.03,0.03-0.04,0.04c-0.29-0.21-0.59-0.42-0.9-0.64c-0.3,0.21-0.58,0.42-0.87,0.63
			C29.14,43.57,29.12,43.56,29.1,43.55z"/>
		<path class="st1" d="M3,41.79c0.12-0.36,0.24-0.71,0.36-1.05c0.02,0,0.03,0,0.05,0c0.11,0.34,0.23,0.68,0.35,1.05
			c0.36,0,0.72,0,1.08,0c0.01,0.02,0.02,0.05,0.02,0.07c-0.14,0.1-0.28,0.2-0.42,0.31c-0.14,0.11-0.29,0.21-0.45,0.33
			c0.11,0.35,0.21,0.7,0.32,1.04c-0.35-0.15-0.61-0.39-0.94-0.59c-0.3,0.21-0.59,0.42-0.89,0.63c-0.01-0.01-0.03-0.02-0.04-0.03
			c0.11-0.35,0.21-0.69,0.33-1.05c-0.29-0.22-0.58-0.43-0.89-0.66c0.2-0.1,0.39-0.05,0.57-0.06C2.63,41.78,2.81,41.79,3,41.79z"/>
		<path class="st1" d="M10.08,35.08c0.11,0.33,0.22,0.66,0.34,1.02c0.36,0,0.72,0,1.14,0c-0.14,0.21-0.31,0.28-0.45,0.39
			c-0.14,0.11-0.29,0.21-0.45,0.33c0.11,0.35,0.22,0.7,0.33,1.05c-0.01,0.01-0.03,0.03-0.04,0.04c-0.29-0.21-0.59-0.42-0.9-0.64
			c-0.3,0.21-0.6,0.42-0.9,0.63c-0.01-0.01-0.03-0.02-0.04-0.03c0.11-0.35,0.21-0.69,0.33-1.05c-0.3-0.22-0.58-0.43-0.9-0.66
			c0.21-0.1,0.4-0.04,0.58-0.05c0.18-0.01,0.36,0,0.55,0c0.12-0.35,0.23-0.69,0.35-1.03C10.03,35.08,10.06,35.08,10.08,35.08z"/>
		<path class="st1" d="M3.76,47.45c0.37,0,0.73,0,1.12,0c-0.11,0.2-0.3,0.27-0.43,0.38c-0.14,0.11-0.29,0.21-0.46,0.33
			c0.11,0.35,0.22,0.7,0.32,1.04c-0.01,0.01-0.03,0.03-0.04,0.04c-0.29-0.21-0.59-0.42-0.89-0.63c-0.3,0.21-0.59,0.42-0.88,0.63
			c0.02-0.38,0.19-0.71,0.26-1.08c-0.29-0.22-0.58-0.43-0.88-0.65c0.01-0.02,0.01-0.04,0.02-0.05c0.36,0,0.73,0,1.1,0
			c0.12-0.37,0.24-0.72,0.36-1.06c0.02,0,0.03,0,0.05,0C3.52,46.74,3.63,47.07,3.76,47.45z"/>
		<path class="st1" d="M24.26,37.91c-0.29-0.21-0.58-0.41-0.89-0.63c-0.3,0.22-0.6,0.43-0.89,0.64c-0.02-0.01-0.03-0.02-0.05-0.03
			c0.11-0.35,0.22-0.69,0.33-1.05c-0.3-0.22-0.59-0.44-0.88-0.65c0.01-0.02,0.01-0.04,0.02-0.06c0.36,0,0.72,0,1.09,0
			c0.12-0.36,0.24-0.7,0.35-1.03c0.02,0,0.04,0,0.06,0c0.11,0.33,0.23,0.67,0.35,1.03c0.36,0,0.72,0,1.08,0
			c0.01,0.02,0.01,0.04,0.02,0.06c-0.28,0.21-0.57,0.42-0.88,0.65c0.11,0.34,0.22,0.69,0.32,1.04
			C24.29,37.88,24.28,37.89,24.26,37.91z"/>
		<path class="st1" d="M33.98,28.34c0.12,0.36,0.22,0.7,0.33,1.04c-0.02,0.01-0.04,0.03-0.06,0.04c-0.29-0.21-0.58-0.41-0.88-0.63
			c-0.3,0.21-0.6,0.42-0.9,0.63c-0.02-0.01-0.03-0.02-0.05-0.03c0.11-0.35,0.22-0.69,0.33-1.05c-0.28-0.21-0.56-0.42-0.9-0.67
			c0.41-0.07,0.78,0,1.14-0.05c0.12-0.35,0.23-0.68,0.35-1.02c0.02,0,0.04,0,0.06,0c0.08,0.22,0.16,0.45,0.23,0.67
			c0.13,0.4,0.05,0.36,0.49,0.36c0.22,0,0.43,0,0.65,0.01c0.02,0,0.03,0.02,0.08,0.04c-0.13,0.13-0.28,0.22-0.42,0.32
			C34.29,28.11,34.14,28.22,33.98,28.34z"/>
		<path class="st1" d="M7.59,29.41C7.3,29.2,7.02,29,6.71,28.78c-0.3,0.22-0.6,0.43-0.89,0.64c-0.02-0.01-0.03-0.02-0.05-0.04
			c0.11-0.34,0.22-0.68,0.33-1.04c-0.29-0.21-0.58-0.43-0.92-0.68c0.41-0.09,0.78,0,1.16-0.06c0.11-0.33,0.22-0.67,0.34-1.01
			c0.02,0,0.04,0,0.06,0c0.12,0.34,0.23,0.68,0.35,1.04c0.37,0,0.72,0,1.08,0c0.01,0.02,0.01,0.04,0.02,0.06
			c-0.28,0.21-0.57,0.42-0.87,0.65c0.11,0.35,0.21,0.69,0.32,1.04C7.63,29.39,7.61,29.4,7.59,29.41z"/>
		<path class="st1" d="M27.09,27.62c0.35,0,0.71,0,1.12,0c-0.14,0.2-0.31,0.27-0.45,0.39c-0.14,0.11-0.29,0.21-0.45,0.33
			c0.11,0.35,0.22,0.7,0.33,1.05c-0.02,0.01-0.03,0.02-0.05,0.04c-0.3-0.21-0.59-0.42-0.89-0.64c-0.3,0.21-0.59,0.42-0.88,0.63
			c-0.02-0.01-0.03-0.02-0.05-0.03c0.11-0.34,0.21-0.68,0.32-1.03c-0.29-0.22-0.58-0.43-0.87-0.65c0.01-0.02,0.01-0.04,0.02-0.06
			c0.21,0,0.42,0,0.64,0c0.56-0.01,0.42,0.06,0.6-0.44c0.07-0.19,0.13-0.39,0.21-0.65C26.88,26.9,26.93,27.27,27.09,27.62z"/>
		<path class="st1" d="M16.74,40.76c0.09,0.27,0.19,0.54,0.27,0.82c0.04,0.16,0.12,0.22,0.29,0.21c0.22-0.01,0.45,0,0.68,0
			c0.07,0,0.14,0.01,0.27,0.03c-0.34,0.25-0.62,0.46-0.92,0.68c0.11,0.35,0.21,0.69,0.32,1.04c-0.02,0.01-0.03,0.02-0.05,0.03
			c-0.29-0.21-0.58-0.41-0.89-0.63c-0.3,0.21-0.59,0.42-0.93,0.66c0.06-0.41,0.22-0.73,0.31-1.1c-0.28-0.21-0.57-0.42-0.91-0.67
			c0.41-0.09,0.78,0,1.15-0.07c0.11-0.33,0.23-0.67,0.34-1C16.7,40.76,16.72,40.76,16.74,40.76z"/>
		<path class="st1" d="M30.42,47.45c0.37,0,0.73,0,1.09,0c-0.24,0.3-0.56,0.47-0.85,0.73c0.11,0.34,0.21,0.69,0.32,1.03
			c-0.01,0.01-0.03,0.02-0.04,0.04c-0.3-0.21-0.59-0.42-0.9-0.63c-0.3,0.22-0.59,0.43-0.93,0.67c0.03-0.13,0.04-0.2,0.06-0.27
			c0.07-0.22,0.13-0.45,0.22-0.67c0.05-0.13,0.02-0.21-0.09-0.29c-0.25-0.17-0.49-0.36-0.77-0.56c0.21-0.09,0.4-0.04,0.58-0.05
			c0.19-0.01,0.38,0,0.57,0c0.12-0.36,0.23-0.71,0.35-1.05c0.02,0,0.03,0,0.05,0C30.18,46.75,30.29,47.08,30.42,47.45z"/>
		<path class="st1" d="M8.58,47.45c0.36,0,0.71,0,1.08,0c0.12-0.36,0.23-0.7,0.37-1.09c0.19,0.36,0.24,0.73,0.4,1.08
			c0.35,0,0.72,0,1.08,0c0.01,0.02,0.02,0.04,0.02,0.06c-0.27,0.24-0.59,0.42-0.88,0.67c0.11,0.35,0.22,0.69,0.33,1.04
			c-0.02,0.01-0.03,0.02-0.05,0.04c-0.3-0.21-0.59-0.42-0.9-0.64c-0.3,0.21-0.59,0.42-0.92,0.66c0.06-0.42,0.23-0.74,0.31-1.11
			c-0.29-0.22-0.58-0.43-0.87-0.64C8.57,47.5,8.57,47.47,8.58,47.45z"/>
		<path class="st1" d="M33.75,33.29c0.37,0,0.72,0,1.11,0c-0.11,0.2-0.29,0.27-0.43,0.38c-0.14,0.11-0.29,0.21-0.44,0.33
			c0.11,0.36,0.22,0.71,0.33,1.06c-0.34-0.16-0.62-0.39-0.94-0.6c-0.3,0.21-0.6,0.42-0.9,0.63c-0.02-0.01-0.03-0.02-0.05-0.03
			c0.11-0.34,0.22-0.68,0.34-1.05c-0.28-0.21-0.58-0.42-0.9-0.67c0.22-0.08,0.4-0.04,0.58-0.05c0.18-0.01,0.36,0,0.55,0
			c0.12-0.36,0.24-0.7,0.36-1.05c0.02,0,0.04,0,0.05,0.01C33.51,32.59,33.63,32.92,33.75,33.29z"/>
		<path class="st1" d="M13.38,40.12c-0.31,0.22-0.6,0.43-0.94,0.67c0.07-0.42,0.24-0.75,0.33-1.12c-0.3-0.22-0.59-0.43-0.88-0.64
			c0.01-0.02,0.01-0.04,0.02-0.06c0.36,0,0.72,0,1.09,0c0.13-0.37,0.24-0.72,0.36-1.06c0.02,0,0.04,0,0.05,0
			c0.11,0.35,0.23,0.69,0.35,1.06c0.37,0,0.73,0,1.1,0c0.01,0.02,0.01,0.03,0.02,0.05c-0.07,0.05-0.13,0.11-0.2,0.16
			c-0.17,0.12-0.33,0.24-0.5,0.37c-0.19,0.14-0.19,0.14-0.11,0.38c0.06,0.2,0.13,0.39,0.19,0.59c0.02,0.07,0.04,0.14,0.07,0.27
			C13.97,40.56,13.7,40.33,13.38,40.12z"/>
		<path class="st1" d="M13,33.28c0.12-0.36,0.23-0.7,0.34-1.04c0.02,0,0.04,0,0.06,0c0.12,0.34,0.23,0.68,0.36,1.05
			c0.37,0,0.73,0,1.1,0c0.01,0.02,0.01,0.04,0.02,0.05c-0.16,0.12-0.33,0.24-0.49,0.36c-0.5,0.38-0.42,0.18-0.25,0.77
			c0.05,0.19,0.12,0.37,0.2,0.63c-0.37-0.2-0.63-0.45-0.96-0.65c-0.29,0.21-0.59,0.42-0.89,0.63c-0.01-0.01-0.03-0.02-0.04-0.03
			c0.05-0.17,0.1-0.34,0.15-0.51c0.05-0.17,0.11-0.34,0.17-0.54c-0.3-0.22-0.59-0.43-0.91-0.67c0.22-0.09,0.4-0.04,0.58-0.05
			C12.61,33.28,12.79,33.28,13,33.28z"/>
		<path class="st1" d="M20.02,32.21c0.2,0.35,0.24,0.71,0.4,1.06c0.35,0,0.72,0,1.12,0c-0.1,0.22-0.29,0.28-0.43,0.39
			c-0.14,0.12-0.3,0.22-0.46,0.34c0.11,0.35,0.22,0.69,0.33,1.03c-0.01,0.01-0.03,0.03-0.04,0.04c-0.31-0.18-0.58-0.42-0.9-0.62
			c-0.3,0.21-0.6,0.42-0.89,0.63c-0.02-0.01-0.03-0.02-0.05-0.03c0.11-0.34,0.21-0.69,0.33-1.05c-0.3-0.22-0.58-0.44-0.87-0.66
			c0.01-0.02,0.01-0.04,0.02-0.06c0.36,0,0.72,0,1.08,0C19.78,32.92,19.9,32.59,20.02,32.21z"/>
		<path class="st1" d="M18.58,38.96c0.36,0,0.71,0,1.08,0c0.12-0.36,0.24-0.71,0.35-1.06c0.02,0,0.03,0,0.05,0
			c0.12,0.35,0.23,0.69,0.36,1.06c0.37,0,0.73,0,1.09,0c0.01,0.02,0.02,0.04,0.02,0.06c-0.29,0.21-0.58,0.43-0.88,0.65
			c0.11,0.35,0.22,0.69,0.32,1.03c-0.34-0.15-0.62-0.38-0.93-0.59c-0.3,0.22-0.6,0.43-0.94,0.67c0.02-0.1,0.02-0.16,0.03-0.21
			c0.07-0.22,0.14-0.44,0.21-0.67c0.08-0.24,0.08-0.24-0.13-0.39c-0.17-0.13-0.35-0.25-0.52-0.38c-0.05-0.04-0.09-0.08-0.13-0.12
			C18.57,39,18.57,38.98,18.58,38.96z"/>
		<path class="st1" d="M24.26,49.25c-0.29-0.21-0.58-0.41-0.88-0.63c-0.3,0.21-0.6,0.42-0.9,0.63c-0.01-0.01-0.03-0.02-0.04-0.03
			c0.11-0.34,0.21-0.68,0.33-1.04c-0.29-0.22-0.58-0.44-0.88-0.66c0.01-0.02,0.01-0.04,0.02-0.06c0.36,0,0.72,0,1.09,0
			c0.12-0.37,0.24-0.71,0.36-1.06c0.02,0,0.04,0,0.05,0c0.11,0.34,0.22,0.67,0.34,1.04c0.36,0,0.73,0,1.09,0
			c0.01,0.02,0.02,0.04,0.02,0.06c-0.26,0.25-0.58,0.42-0.87,0.67c0.11,0.35,0.21,0.69,0.32,1.04
			C24.29,49.23,24.27,49.24,24.26,49.25z"/>
		<path class="st1" d="M32.98,38.98c0.13-0.38,0.24-0.72,0.36-1.05c0.02,0,0.04,0,0.06,0c0.11,0.34,0.23,0.68,0.35,1.04
			c0.36,0,0.72,0,1.11,0c-0.12,0.21-0.3,0.27-0.44,0.39c-0.14,0.11-0.29,0.21-0.44,0.33c0.11,0.36,0.22,0.7,0.33,1.05
			c-0.02,0.01-0.04,0.02-0.05,0.03c-0.29-0.21-0.58-0.41-0.88-0.63c-0.3,0.21-0.6,0.42-0.95,0.67c0.07-0.42,0.24-0.74,0.32-1.12
			c-0.28-0.21-0.57-0.43-0.86-0.64c0.01-0.02,0.01-0.03,0.02-0.05C32.26,38.98,32.61,38.98,32.98,38.98z"/>
		<path class="st1" d="M26.09,34.01c-0.3-0.22-0.59-0.44-0.88-0.65c0.01-0.02,0.01-0.04,0.02-0.05c0.36,0,0.71,0,1.09,0
			c0.12-0.36,0.23-0.7,0.35-1.05c0.02,0,0.04,0,0.06,0c0.11,0.34,0.22,0.67,0.35,1.04c0.36,0,0.73,0,1.09,0
			c0.01,0.02,0.02,0.04,0.02,0.06c-0.27,0.24-0.59,0.42-0.88,0.66c0.11,0.35,0.22,0.7,0.33,1.04c-0.02,0.01-0.03,0.02-0.05,0.03
			c-0.29-0.21-0.58-0.42-0.89-0.64c-0.3,0.21-0.59,0.42-0.93,0.66C25.84,34.7,26,34.37,26.09,34.01z"/>
		<path class="st1" d="M6.75,32.26c0.11,0.34,0.23,0.68,0.34,1.03c0.37,0,0.73,0,1.08,0c0.01,0.02,0.02,0.04,0.02,0.05
			C7.93,33.58,7.61,33.77,7.32,34c0.11,0.35,0.21,0.69,0.32,1.03c-0.01,0.01-0.03,0.03-0.04,0.04c-0.3-0.18-0.57-0.41-0.89-0.62
			c-0.29,0.21-0.59,0.42-0.89,0.63c-0.02-0.01-0.03-0.02-0.05-0.03c0.11-0.34,0.21-0.68,0.32-1.04c-0.27-0.24-0.6-0.43-0.88-0.67
			c0.01-0.02,0.01-0.03,0.02-0.05c0.36,0,0.71,0,1.09,0c0.12-0.36,0.24-0.7,0.36-1.05C6.7,32.25,6.73,32.25,6.75,32.26z"/>
		<path class="st1" d="M36.69,48.62c-0.3,0.21-0.58,0.42-0.91,0.65c0.04-0.41,0.23-0.73,0.3-1.11c-0.29-0.21-0.58-0.43-0.87-0.64
			c0.01-0.02,0.01-0.04,0.02-0.06c0.36,0,0.72,0,1.09,0c0.12-0.37,0.24-0.71,0.37-1.11c0.18,0.38,0.25,0.74,0.4,1.09
			c0.36,0,0.72,0,1.09,0c0.01,0.02,0.01,0.04,0.02,0.05c-0.26,0.25-0.59,0.42-0.88,0.67c0.11,0.34,0.22,0.69,0.33,1.03
			C37.29,49.06,37.02,48.82,36.69,48.62z"/>
		<path class="st1" d="M29.42,25.51c-0.3-0.23-0.59-0.44-0.89-0.66c0.01-0.02,0.01-0.03,0.02-0.05c0.36,0,0.73,0,1.1,0
			c0.12-0.36,0.24-0.71,0.35-1.05c0.02,0,0.03,0,0.05,0c0.12,0.34,0.23,0.68,0.35,1.04c0.36,0,0.73,0,1.16,0
			c-0.3,0.3-0.63,0.47-0.92,0.73c0.11,0.34,0.22,0.69,0.32,1.04c-0.02,0.01-0.03,0.03-0.05,0.04c-0.29-0.21-0.59-0.42-0.89-0.64
			c-0.3,0.21-0.59,0.42-0.88,0.63c-0.02-0.01-0.03-0.02-0.05-0.03C29.21,26.21,29.32,25.86,29.42,25.51z"/>
		<path class="st1" d="M2.44,26.55c0.11-0.35,0.22-0.69,0.33-1.05c-0.31-0.23-0.6-0.44-0.91-0.67c0.21-0.08,0.4-0.03,0.58-0.04
			c0.19-0.01,0.38,0,0.57,0c0.12-0.35,0.23-0.69,0.35-1.03c0.02,0,0.04-0.01,0.05-0.01c0.12,0.34,0.23,0.68,0.35,1.04
			c0.37,0,0.73,0,1.15,0c-0.3,0.3-0.63,0.47-0.92,0.73c0.11,0.34,0.22,0.69,0.32,1.03c-0.01,0.01-0.03,0.02-0.04,0.04
			c-0.3-0.21-0.59-0.42-0.89-0.64c-0.3,0.21-0.6,0.43-0.89,0.64C2.47,26.58,2.46,26.56,2.44,26.55z"/>
		<path class="st1" d="M11.54,24.85c-0.29,0.22-0.59,0.43-0.89,0.65c0.12,0.36,0.23,0.71,0.34,1.05c-0.02,0.01-0.03,0.02-0.05,0.03
			c-0.3-0.21-0.59-0.42-0.9-0.64c-0.3,0.21-0.59,0.43-0.89,0.64c-0.02-0.01-0.03-0.03-0.05-0.04c0.11-0.35,0.22-0.69,0.33-1.04
			c-0.3-0.22-0.59-0.44-0.88-0.65c0-0.02,0.01-0.04,0.01-0.05c0.36-0.04,0.72,0.01,1.1-0.02c0.12-0.34,0.23-0.68,0.35-1.03
			c0.02,0,0.04,0,0.06-0.01c0.11,0.34,0.22,0.67,0.34,1.03c0.36,0,0.73,0,1.1,0C11.52,24.81,11.53,24.83,11.54,24.85z"/>
		<path class="st1" d="M22.99,24.8c0.13-0.38,0.24-0.72,0.35-1.05c0.02,0,0.04,0,0.06,0c0.11,0.34,0.22,0.67,0.34,1.04
			c0.37,0,0.73,0,1.09,0c0.01,0.02,0.01,0.04,0.02,0.06c-0.27,0.24-0.59,0.42-0.88,0.67c0.11,0.35,0.22,0.7,0.32,1.04
			c-0.02,0.01-0.03,0.02-0.05,0.04c-0.29-0.21-0.59-0.42-0.89-0.64c-0.3,0.22-0.59,0.43-0.88,0.63c-0.02-0.01-0.03-0.02-0.05-0.03
			c0.11-0.34,0.22-0.69,0.33-1.05c-0.3-0.22-0.59-0.44-0.89-0.65c0.01-0.02,0.01-0.03,0.02-0.05C22.25,24.8,22.61,24.8,22.99,24.8z"
			/>
		<path class="st1" d="M17.32,48.17c0.11,0.36,0.22,0.7,0.32,1.04c-0.02,0.01-0.03,0.03-0.05,0.04c-0.29-0.2-0.57-0.41-0.89-0.63
			c-0.29,0.21-0.59,0.42-0.93,0.67c0.07-0.42,0.25-0.75,0.32-1.12c-0.29-0.21-0.58-0.43-0.87-0.64c0.01-0.02,0.01-0.04,0.02-0.06
			c0.35,0,0.71,0,1.08,0c0.12-0.35,0.23-0.69,0.36-1.06c0.15,0.16,0.16,0.35,0.23,0.52c0.06,0.17,0.11,0.34,0.18,0.52
			c0.37,0,0.73,0,1.12,0c-0.1,0.21-0.29,0.27-0.42,0.38C17.64,47.95,17.49,48.04,17.32,48.17z"/>
		<path class="st1" d="M27.32,39.68c0.11,0.36,0.22,0.7,0.33,1.04c-0.02,0.01-0.03,0.02-0.05,0.03c-0.29-0.21-0.58-0.41-0.89-0.64
			c-0.29,0.21-0.59,0.42-0.94,0.67c0.07-0.41,0.24-0.74,0.32-1.12c-0.29-0.21-0.58-0.43-0.87-0.64c0.01-0.02,0.01-0.04,0.02-0.05
			c0.36,0,0.72,0,1.09,0c0.12-0.36,0.23-0.7,0.37-1.11c0.19,0.38,0.24,0.74,0.4,1.1c0.35,0,0.72,0,1.15,0
			C27.93,39.26,27.6,39.43,27.32,39.68z"/>
		<path class="st1" d="M7.59,40.74c-0.29-0.21-0.58-0.42-0.88-0.63c-0.3,0.21-0.59,0.42-0.94,0.67c0.06-0.41,0.23-0.74,0.32-1.11
			c-0.29-0.21-0.58-0.43-0.92-0.68c0.42-0.06,0.78,0,1.16-0.04c0.12-0.34,0.23-0.68,0.35-1.03c0.02,0,0.04,0,0.06,0
			c0.12,0.34,0.23,0.69,0.35,1.04c0.37,0,0.73,0,1.08,0c0.01,0.02,0.02,0.03,0.02,0.05c-0.27,0.24-0.58,0.42-0.87,0.66
			c0.11,0.35,0.22,0.7,0.32,1.04C7.63,40.72,7.61,40.73,7.59,40.74z"/>
		<path class="st1" d="M36.7,25.95c-0.31,0.22-0.6,0.43-0.89,0.63c-0.02-0.01-0.03-0.02-0.05-0.03c0.11-0.34,0.22-0.69,0.33-1.05
			c-0.3-0.22-0.59-0.43-0.88-0.65c0.01-0.02,0.02-0.04,0.02-0.05c0.35,0,0.71,0,1.08,0c0.12-0.36,0.24-0.71,0.37-1.11
			c0.19,0.37,0.25,0.74,0.4,1.09c0.36,0,0.72,0,1.09,0c0.01,0.02,0.01,0.04,0.02,0.05c-0.27,0.24-0.59,0.42-0.88,0.67
			c0.11,0.34,0.22,0.69,0.33,1.04c-0.02,0.01-0.03,0.03-0.05,0.04C37.3,26.38,37.01,26.17,36.7,25.95z"/>
		<path class="st1" d="M13.4,43.58c0.11,0.34,0.23,0.68,0.35,1.04c0.36,0,0.72,0,1.12,0c-0.12,0.2-0.3,0.27-0.44,0.38
			c-0.14,0.11-0.29,0.21-0.44,0.33c0.11,0.36,0.22,0.71,0.32,1.06c-0.01,0.01-0.03,0.02-0.04,0.03c-0.3-0.21-0.59-0.42-0.9-0.64
			c-0.3,0.22-0.6,0.43-0.9,0.64c-0.01-0.01-0.03-0.02-0.04-0.03c0.11-0.35,0.22-0.69,0.33-1.06c-0.29-0.22-0.58-0.43-0.9-0.66
			c0.2-0.09,0.39-0.04,0.57-0.05c0.18-0.01,0.36,0,0.56,0c0.12-0.35,0.23-0.7,0.35-1.04C13.36,43.58,13.38,43.58,13.4,43.58z"/>
		<path class="st1" d="M19.41,45.32c-0.28-0.21-0.57-0.42-0.85-0.63c0.01-0.02,0.01-0.04,0.02-0.05c0.35,0,0.71,0,1.08,0
			c0.13-0.37,0.24-0.71,0.36-1.06c0.02,0,0.04,0,0.05-0.01c0.11,0.34,0.23,0.69,0.35,1.06c0.37,0,0.73,0,1.09,0
			c0.01,0.02,0.01,0.04,0.02,0.05c-0.29,0.21-0.57,0.42-0.88,0.65c0.11,0.35,0.22,0.7,0.33,1.04c-0.34-0.15-0.62-0.39-0.94-0.6
			c-0.29,0.21-0.59,0.42-0.93,0.66C19.16,46.03,19.36,45.7,19.41,45.32z"/>
		<path class="st1" d="M16.32,24.8c0.13-0.37,0.24-0.71,0.35-1.05c0.02,0,0.04,0,0.06,0c0.12,0.34,0.23,0.68,0.35,1.04
			c0.37,0,0.73,0,1.08,0c0.01,0.02,0.02,0.03,0.02,0.05c-0.26,0.24-0.58,0.42-0.87,0.67c0.11,0.34,0.21,0.69,0.32,1.04
			c-0.02,0.01-0.03,0.02-0.05,0.03c-0.29-0.21-0.58-0.41-0.89-0.63c-0.29,0.21-0.59,0.42-0.88,0.63c-0.02-0.01-0.03-0.02-0.05-0.03
			c0.11-0.35,0.21-0.69,0.32-1.05c-0.3-0.22-0.59-0.44-0.88-0.65c0.01-0.02,0.01-0.03,0.02-0.05C15.59,24.8,15.95,24.8,16.32,24.8z"
			/>
		<path class="st1" d="M24.86,30.52c-0.18,0.14-0.37,0.27-0.55,0.41c-0.37,0.28-0.35,0.17-0.2,0.62c0.07,0.21,0.13,0.41,0.19,0.62
			c0,0.01-0.01,0.03-0.02,0.09c-0.31-0.22-0.6-0.43-0.91-0.64c-0.3,0.21-0.6,0.43-0.9,0.64c-0.01-0.01-0.03-0.02-0.04-0.03
			c0.11-0.35,0.22-0.69,0.33-1.06c-0.29-0.22-0.58-0.43-0.89-0.66c0.2-0.09,0.39-0.04,0.57-0.05c0.18-0.01,0.36,0,0.56,0
			c0.12-0.35,0.24-0.7,0.36-1.04c0.02,0,0.04,0,0.05,0c0.12,0.34,0.23,0.68,0.36,1.05c0.36,0,0.72,0,1.08,0
			C24.84,30.48,24.85,30.5,24.86,30.52z"/>
		<path class="st1" d="M17.1,30.46c0.37,0,0.72,0,1.1,0c-0.11,0.19-0.29,0.26-0.43,0.37c-0.14,0.11-0.29,0.21-0.45,0.33
			c0.11,0.35,0.22,0.7,0.32,1.05c-0.01,0.01-0.03,0.02-0.04,0.04c-0.3-0.21-0.59-0.42-0.89-0.63c-0.3,0.21-0.59,0.42-0.94,0.67
			c0.07-0.42,0.24-0.75,0.32-1.11c-0.29-0.22-0.58-0.43-0.87-0.65c0.01-0.02,0.01-0.04,0.02-0.06c0.18,0,0.35,0,0.53,0
			c0.18,0,0.36,0,0.56,0c0.12-0.35,0.23-0.69,0.37-1.1C16.89,29.74,16.94,30.11,17.1,30.46z"/>
		<path class="st1" d="M37.6,32.26c-0.3-0.21-0.59-0.42-0.9-0.64c-0.3,0.21-0.6,0.42-0.89,0.64c-0.01-0.01-0.03-0.02-0.04-0.03
			c0.11-0.35,0.21-0.69,0.32-1.05c-0.3-0.22-0.58-0.43-0.87-0.64c0.01-0.02,0.01-0.03,0.02-0.05c0.35,0,0.71,0,1.08,0
			c0.12-0.36,0.24-0.71,0.37-1.11c0.19,0.36,0.24,0.73,0.4,1.09c0.35,0,0.72,0,1.08,0c0.01,0.02,0.02,0.04,0.02,0.06
			c-0.29,0.21-0.58,0.43-0.88,0.65c0.11,0.36,0.22,0.71,0.33,1.05C37.63,32.24,37.61,32.25,37.6,32.26z"/>
		<path class="st1" d="M10.43,30.47c0.38,0,0.73,0,1.13,0c-0.29,0.29-0.62,0.46-0.9,0.71c0.11,0.35,0.22,0.7,0.33,1.05
			c-0.01,0.01-0.03,0.02-0.04,0.03c-0.3-0.21-0.59-0.43-0.9-0.64c-0.3,0.22-0.59,0.43-0.92,0.66c0.01-0.1,0.01-0.16,0.02-0.21
			c0.07-0.24,0.15-0.48,0.24-0.72c0.05-0.13,0.02-0.22-0.1-0.3c-0.24-0.17-0.48-0.35-0.75-0.54c0.21-0.09,0.39-0.04,0.57-0.05
			c0.18-0.01,0.36,0,0.55,0c0.12-0.36,0.24-0.7,0.36-1.05c0.02,0,0.04,0,0.06,0C10.19,29.76,10.3,30.1,10.43,30.47z"/>
		<path class="st1" d="M29.1,32.23c0.11-0.35,0.22-0.69,0.33-1.05c-0.3-0.22-0.59-0.43-0.87-0.65c0.01-0.02,0.01-0.04,0.02-0.05
			c0.35,0,0.71,0,1.08,0c0.12-0.37,0.24-0.71,0.35-1.06c0.02,0,0.04,0,0.06-0.01c0.12,0.34,0.23,0.68,0.36,1.05
			c0.36,0,0.71,0,1.07,0c0.01,0.02,0.02,0.04,0.03,0.05c-0.25,0.24-0.57,0.41-0.85,0.66c0.06,0.35,0.24,0.69,0.33,1.13
			c-0.35-0.25-0.65-0.46-0.95-0.68c-0.3,0.22-0.6,0.43-0.89,0.64C29.13,32.25,29.12,32.24,29.1,32.23z"/>
		<path class="st1" d="M34.26,46.42c-0.3-0.21-0.59-0.43-0.9-0.65c-0.3,0.22-0.59,0.43-0.88,0.64c-0.02-0.01-0.03-0.02-0.05-0.03
			c0.06-0.35,0.23-0.68,0.32-1.06c-0.28-0.2-0.56-0.42-0.91-0.67c0.41-0.05,0.77-0.01,1.15-0.03c0.12-0.34,0.24-0.69,0.36-1.04
			c0.02,0,0.04,0,0.06,0c0.12,0.34,0.23,0.69,0.36,1.06c0.36,0,0.72,0,1.07,0c0.01,0.02,0.01,0.03,0.02,0.05
			c-0.28,0.21-0.56,0.41-0.86,0.64c0.11,0.35,0.22,0.71,0.32,1.06C34.29,46.4,34.28,46.41,34.26,46.42z"/>
		<path class="st1" d="M4.27,32.25c-0.29-0.21-0.58-0.42-0.89-0.64c-0.29,0.21-0.59,0.43-0.89,0.64c-0.02-0.01-0.03-0.02-0.05-0.03
			c0.05-0.17,0.1-0.35,0.15-0.52c0.05-0.17,0.1-0.34,0.15-0.51c-0.14-0.12-0.29-0.24-0.44-0.35c-0.13-0.1-0.27-0.2-0.43-0.32
			c0.2-0.09,0.39-0.04,0.57-0.05c0.18-0.01,0.36,0,0.55,0c0.12-0.36,0.23-0.71,0.35-1.05c0.02,0,0.04,0,0.05,0
			c0.12,0.34,0.23,0.69,0.36,1.05c0.36,0,0.72,0,1.07,0c0.01,0.02,0.02,0.04,0.02,0.05c-0.26,0.24-0.58,0.42-0.87,0.66
			c0.11,0.35,0.22,0.7,0.33,1.05C4.3,32.23,4.29,32.24,4.27,32.25z"/>
		<path class="st1" d="M8.19,44.69c-0.28,0.21-0.56,0.41-0.87,0.64c0.11,0.35,0.22,0.69,0.34,1.09c-0.22-0.09-0.35-0.22-0.5-0.32
			c-0.15-0.1-0.29-0.21-0.45-0.33c-0.3,0.21-0.6,0.43-0.9,0.64c-0.02-0.01-0.03-0.02-0.05-0.03c0.11-0.35,0.22-0.69,0.33-1.06
			c-0.29-0.22-0.58-0.43-0.93-0.68c0.42-0.05,0.78,0,1.16-0.03c0.12-0.35,0.24-0.69,0.35-1.03c0.02,0,0.04,0,0.06,0
			c0.11,0.34,0.23,0.69,0.35,1.05c0.37,0,0.72,0,1.08,0C8.18,44.65,8.19,44.67,8.19,44.69z"/>
		<path class="st1" d="M27.1,44.64c0.36,0,0.72,0,1.07,0c0.01,0.02,0.01,0.03,0.02,0.05c-0.28,0.21-0.57,0.42-0.87,0.65
			c0.11,0.35,0.22,0.69,0.33,1.04c-0.01,0.01-0.03,0.03-0.04,0.04c-0.29-0.21-0.59-0.42-0.9-0.63c-0.3,0.21-0.6,0.42-0.89,0.63
			c-0.01-0.01-0.03-0.02-0.04-0.03c0.11-0.35,0.21-0.7,0.32-1.05c-0.3-0.22-0.58-0.43-0.87-0.64c0.36-0.09,0.72-0.05,1.1-0.07
			c0.11-0.34,0.23-0.68,0.37-1.09C26.88,43.91,26.94,44.27,27.1,44.64z"/>
		<path class="st1" d="M16.74,35.09c0.08,0.24,0.16,0.48,0.24,0.71c0.11,0.33,0.02,0.32,0.45,0.32c0.19,0,0.38,0,0.57,0
			c0.06,0,0.12,0.01,0.24,0.03c-0.33,0.25-0.62,0.46-0.91,0.68c0.11,0.35,0.22,0.7,0.32,1.05c-0.02,0.01-0.03,0.02-0.05,0.03
			c-0.29-0.21-0.58-0.41-0.89-0.63c-0.3,0.21-0.6,0.42-0.89,0.64c-0.02-0.01-0.03-0.02-0.05-0.03c0.11-0.35,0.22-0.69,0.33-1.05
			c-0.29-0.22-0.58-0.43-0.91-0.67c0.11-0.02,0.17-0.03,0.22-0.03c0.24,0,0.49-0.01,0.73,0c0.14,0,0.21-0.04,0.25-0.18
			c0.06-0.22,0.13-0.43,0.21-0.64c0.02-0.07,0.06-0.14,0.09-0.21C16.7,35.09,16.72,35.09,16.74,35.09z"/>
		<path class="st1" d="M2.77,36.83c-0.3-0.23-0.58-0.43-0.92-0.68C2.26,36.1,2.62,36.15,3,36.11c0.12-0.35,0.24-0.7,0.36-1.05
			c0.02,0,0.03,0,0.05,0c0.06,0.19,0.12,0.39,0.19,0.58c0.21,0.59,0.05,0.48,0.67,0.49c0.19,0,0.37,0,0.57,0.03
			c-0.24,0.27-0.56,0.44-0.85,0.69c0.11,0.35,0.22,0.7,0.33,1.06c-0.01,0.01-0.03,0.02-0.04,0.03c-0.3-0.21-0.59-0.43-0.9-0.65
			c-0.31,0.22-0.6,0.43-0.9,0.64c-0.01-0.01-0.03-0.02-0.04-0.03C2.55,37.55,2.65,37.2,2.77,36.83z"/>
		<path class="st1" d="M37.59,37.92c-0.29-0.21-0.58-0.42-0.89-0.64c-0.29,0.21-0.58,0.42-0.87,0.62c-0.02-0.01-0.03-0.02-0.05-0.03
			c0.05-0.35,0.23-0.67,0.3-1.04c-0.28-0.21-0.57-0.42-0.89-0.66c0.1-0.02,0.16-0.04,0.21-0.04c0.22,0,0.43,0,0.65,0
			c0.27,0,0.28,0,0.36-0.25c0.09-0.26,0.17-0.53,0.28-0.84c0.05,0.09,0.08,0.14,0.1,0.2c0.07,0.2,0.14,0.41,0.2,0.61
			c0.09,0.28,0.09,0.28,0.37,0.28c0.2,0,0.4,0,0.59,0c0.07,0,0.14,0.01,0.23,0.07c-0.28,0.21-0.56,0.42-0.86,0.64
			c0.11,0.35,0.22,0.7,0.33,1.04C37.62,37.9,37.61,37.91,37.59,37.92z"/>
	</g>
	<rect x="0.02" y="22.43" width="40.01" height="28.39"/>
	<path class="st1" d="M10.66,42.51c0.11,0.36,0.22,0.7,0.33,1.04c-0.01,0.01-0.03,0.02-0.04,0.03c-0.3-0.21-0.59-0.42-0.9-0.64
		c-0.3,0.22-0.6,0.43-0.89,0.64c-0.01-0.01-0.03-0.02-0.04-0.03c0.11-0.35,0.22-0.69,0.33-1.05c-0.3-0.22-0.59-0.43-0.87-0.64
		c0.01-0.02,0.02-0.04,0.02-0.06c0.36,0,0.71,0,1.08,0c0.12-0.36,0.24-0.7,0.37-1.09c0.19,0.36,0.24,0.72,0.4,1.08
		c0.35,0,0.71,0,1.07,0c0.01,0.02,0.02,0.05,0.02,0.07C11.26,42.08,10.94,42.26,10.66,42.51z"/>
	<path class="st1" d="M13.4,26.57c0.12,0.34,0.23,0.69,0.35,1.05c0.36,0,0.72,0,1.14,0c-0.09,0.09-0.12,0.13-0.17,0.17
		c-0.17,0.13-0.35,0.25-0.52,0.38c-0.22,0.16-0.22,0.16-0.14,0.42c0.08,0.26,0.17,0.53,0.28,0.85c-0.22-0.1-0.35-0.23-0.5-0.33
		c-0.15-0.1-0.29-0.21-0.46-0.33c-0.3,0.21-0.59,0.42-0.89,0.64c-0.02-0.01-0.03-0.02-0.05-0.03c0.09-0.35,0.22-0.68,0.32-1.06
		c-0.28-0.21-0.58-0.42-0.87-0.64c0.01-0.02,0.01-0.04,0.02-0.06c0.35,0,0.71,0,1.08,0c0.13-0.37,0.24-0.71,0.36-1.06
		C13.37,26.57,13.38,26.57,13.4,26.57z"/>
	<path class="st1" d="M20.65,28.34c0.11,0.36,0.22,0.71,0.33,1.06c-0.01,0.01-0.03,0.02-0.04,0.03c-0.3-0.21-0.59-0.42-0.9-0.64
		c-0.3,0.21-0.59,0.42-0.93,0.66c0.05-0.41,0.24-0.74,0.3-1.12c-0.28-0.21-0.57-0.42-0.9-0.67c0.41-0.08,0.78,0.01,1.16-0.06
		c0.11-0.34,0.22-0.68,0.34-1.02c0.02,0,0.04-0.01,0.05-0.01c0.12,0.34,0.23,0.68,0.35,1.03c0.37,0.08,0.74-0.02,1.15,0.07
		C21.24,27.9,20.96,28.11,20.65,28.34z"/>
	<path class="st1" d="M23.37,42.95c-0.3,0.22-0.59,0.43-0.88,0.64c0.02-0.38,0.19-0.7,0.27-1.08c-0.29-0.21-0.58-0.43-0.87-0.64
		c0-0.02,0.01-0.04,0.01-0.06c0.36,0,0.72,0,1.09,0c0.12-0.37,0.24-0.7,0.35-1.04c0.02,0,0.04,0,0.06,0
		c0.11,0.33,0.23,0.66,0.35,1.02c0.36,0.01,0.72,0.01,1.09,0.02c0.01,0.02,0.01,0.04,0.02,0.06c-0.28,0.21-0.57,0.42-0.87,0.65
		c0.11,0.35,0.22,0.7,0.32,1.05c-0.01,0.01-0.03,0.02-0.04,0.03C23.98,43.38,23.69,43.18,23.37,42.95z"/>
	<path class="st1" d="M28.57,36.12c0.36,0,0.73,0,1.09,0c0.12-0.37,0.24-0.71,0.35-1.05c0.02,0,0.04,0,0.05-0.01
		c0.11,0.34,0.22,0.67,0.35,1.04c0.36,0,0.73,0,1.13,0c-0.12,0.21-0.3,0.28-0.44,0.39c-0.14,0.11-0.29,0.22-0.46,0.34
		c0.11,0.34,0.22,0.69,0.33,1.04c-0.35-0.14-0.62-0.39-0.94-0.59c-0.3,0.22-0.59,0.43-0.89,0.64c-0.02-0.01-0.03-0.02-0.05-0.03
		c0.11-0.35,0.21-0.69,0.33-1.06c-0.3-0.22-0.59-0.44-0.88-0.66C28.56,36.16,28.57,36.14,28.57,36.12z"/>
	<path class="st1" d="M37.09,41.8c0.37,0,0.72,0,1.08,0c0.01,0.02,0.01,0.04,0.02,0.06c-0.29,0.22-0.58,0.43-0.88,0.65
		c0.11,0.36,0.22,0.69,0.33,1.03c-0.01,0.01-0.03,0.03-0.04,0.04c-0.31-0.18-0.58-0.42-0.91-0.63c-0.29,0.21-0.59,0.42-0.88,0.63
		c-0.02-0.01-0.03-0.02-0.05-0.03c0.11-0.34,0.21-0.69,0.32-1.05c-0.29-0.22-0.58-0.43-0.91-0.68c0.42-0.08,0.78,0,1.15-0.06
		c0.11-0.34,0.23-0.68,0.36-1.07C36.88,41.07,36.93,41.43,37.09,41.8z"/>
	<path class="st1" d="M29.1,43.55c0.11-0.34,0.21-0.68,0.32-1.04c-0.29-0.22-0.58-0.43-0.89-0.66c0.2-0.11,0.39-0.05,0.57-0.06
		c0.18-0.01,0.36,0,0.55,0c0.12-0.36,0.24-0.71,0.36-1.05c0.02,0,0.03,0,0.05,0c0.06,0.17,0.12,0.34,0.17,0.5
		c0.06,0.17,0.11,0.34,0.18,0.55c0.36,0,0.72,0,1.08,0c0.01,0.02,0.01,0.05,0.02,0.07c-0.28,0.21-0.57,0.42-0.87,0.65
		c0.11,0.35,0.22,0.7,0.33,1.05c-0.01,0.01-0.03,0.03-0.04,0.04c-0.29-0.21-0.59-0.42-0.9-0.64c-0.3,0.21-0.58,0.42-0.87,0.63
		C29.14,43.57,29.12,43.56,29.1,43.55z"/>
	<path class="st1" d="M3,41.79c0.12-0.36,0.24-0.71,0.36-1.05c0.02,0,0.03,0,0.05,0c0.11,0.34,0.23,0.68,0.35,1.05
		c0.36,0,0.72,0,1.08,0c0.01,0.02,0.02,0.05,0.02,0.07c-0.14,0.1-0.28,0.2-0.42,0.31c-0.14,0.11-0.29,0.21-0.45,0.33
		c0.11,0.35,0.21,0.7,0.32,1.04c-0.35-0.15-0.61-0.39-0.94-0.59c-0.3,0.21-0.59,0.42-0.89,0.63c-0.01-0.01-0.03-0.02-0.04-0.03
		c0.11-0.35,0.21-0.69,0.33-1.05c-0.29-0.22-0.58-0.43-0.89-0.66c0.2-0.1,0.39-0.05,0.57-0.06C2.63,41.78,2.81,41.79,3,41.79z"/>
	<path class="st1" d="M10.08,35.08c0.11,0.33,0.22,0.66,0.34,1.02c0.36,0,0.72,0,1.14,0c-0.14,0.21-0.31,0.28-0.45,0.39
		c-0.14,0.11-0.29,0.21-0.45,0.33c0.11,0.35,0.22,0.7,0.33,1.05c-0.01,0.01-0.03,0.03-0.04,0.04c-0.29-0.21-0.59-0.42-0.9-0.64
		c-0.3,0.21-0.6,0.42-0.9,0.63c-0.01-0.01-0.03-0.02-0.04-0.03c0.11-0.35,0.21-0.69,0.33-1.05c-0.3-0.22-0.58-0.43-0.9-0.66
		c0.21-0.1,0.4-0.04,0.58-0.05c0.18-0.01,0.36,0,0.55,0c0.12-0.35,0.23-0.69,0.35-1.03C10.03,35.08,10.06,35.08,10.08,35.08z"/>
	<path class="st1" d="M3.76,47.45c0.37,0,0.73,0,1.12,0c-0.11,0.2-0.3,0.27-0.43,0.38c-0.14,0.11-0.29,0.21-0.46,0.33
		c0.11,0.35,0.22,0.7,0.32,1.04c-0.01,0.01-0.03,0.03-0.04,0.04c-0.29-0.21-0.59-0.42-0.89-0.63c-0.3,0.21-0.59,0.42-0.88,0.63
		c0.02-0.38,0.19-0.71,0.26-1.08c-0.29-0.22-0.58-0.43-0.88-0.65c0.01-0.02,0.01-0.04,0.02-0.05c0.36,0,0.73,0,1.1,0
		c0.12-0.37,0.24-0.72,0.36-1.06c0.02,0,0.03,0,0.05,0C3.52,46.74,3.63,47.07,3.76,47.45z"/>
	<path class="st1" d="M24.26,37.91c-0.29-0.21-0.58-0.41-0.89-0.63c-0.3,0.22-0.6,0.43-0.89,0.64c-0.02-0.01-0.03-0.02-0.05-0.03
		c0.11-0.35,0.22-0.69,0.33-1.05c-0.3-0.22-0.59-0.44-0.88-0.65c0.01-0.02,0.01-0.04,0.02-0.06c0.36,0,0.72,0,1.09,0
		c0.12-0.36,0.24-0.7,0.35-1.03c0.02,0,0.04,0,0.06,0c0.11,0.33,0.23,0.67,0.35,1.03c0.36,0,0.72,0,1.08,0
		c0.01,0.02,0.01,0.04,0.02,0.06c-0.28,0.21-0.57,0.42-0.88,0.65c0.11,0.34,0.22,0.69,0.32,1.04
		C24.29,37.88,24.28,37.89,24.26,37.91z"/>
	<path class="st1" d="M33.98,28.34c0.12,0.36,0.22,0.7,0.33,1.04c-0.02,0.01-0.04,0.03-0.06,0.04c-0.29-0.21-0.58-0.41-0.88-0.63
		c-0.3,0.21-0.6,0.42-0.9,0.63c-0.02-0.01-0.03-0.02-0.05-0.03c0.11-0.35,0.22-0.69,0.33-1.05c-0.28-0.21-0.56-0.42-0.9-0.67
		c0.41-0.07,0.78,0,1.14-0.05c0.12-0.35,0.23-0.68,0.35-1.02c0.02,0,0.04,0,0.06,0c0.08,0.22,0.16,0.45,0.23,0.67
		c0.13,0.4,0.05,0.36,0.49,0.36c0.22,0,0.43,0,0.65,0.01c0.02,0,0.03,0.02,0.08,0.04c-0.13,0.13-0.28,0.22-0.42,0.32
		C34.29,28.11,34.14,28.22,33.98,28.34z"/>
	<path class="st1" d="M7.59,29.41C7.3,29.2,7.02,29,6.71,28.78c-0.3,0.22-0.6,0.43-0.89,0.64c-0.02-0.01-0.03-0.02-0.05-0.04
		c0.11-0.34,0.22-0.68,0.33-1.04c-0.29-0.21-0.58-0.43-0.92-0.68c0.41-0.09,0.78,0,1.16-0.06c0.11-0.33,0.22-0.67,0.34-1.01
		c0.02,0,0.04,0,0.06,0c0.12,0.34,0.23,0.68,0.35,1.04c0.37,0,0.72,0,1.08,0c0.01,0.02,0.01,0.04,0.02,0.06
		c-0.28,0.21-0.57,0.42-0.87,0.65c0.11,0.35,0.21,0.69,0.32,1.04C7.63,29.39,7.61,29.4,7.59,29.41z"/>
	<path class="st1" d="M27.09,27.62c0.35,0,0.71,0,1.12,0c-0.14,0.2-0.31,0.27-0.45,0.39c-0.14,0.11-0.29,0.21-0.45,0.33
		c0.11,0.35,0.22,0.7,0.33,1.05c-0.02,0.01-0.03,0.02-0.05,0.04c-0.3-0.21-0.59-0.42-0.89-0.64c-0.3,0.21-0.59,0.42-0.88,0.63
		c-0.02-0.01-0.03-0.02-0.05-0.03c0.11-0.34,0.21-0.68,0.32-1.03c-0.29-0.22-0.58-0.43-0.87-0.65c0.01-0.02,0.01-0.04,0.02-0.06
		c0.21,0,0.42,0,0.64,0c0.56-0.01,0.42,0.06,0.6-0.44c0.07-0.19,0.13-0.39,0.21-0.65C26.88,26.9,26.93,27.27,27.09,27.62z"/>
	<path class="st1" d="M16.74,40.76c0.09,0.27,0.19,0.54,0.27,0.82c0.04,0.16,0.12,0.22,0.29,0.21c0.22-0.01,0.45,0,0.68,0
		c0.07,0,0.14,0.01,0.27,0.03c-0.34,0.25-0.62,0.46-0.92,0.68c0.11,0.35,0.21,0.69,0.32,1.04c-0.02,0.01-0.03,0.02-0.05,0.03
		c-0.29-0.21-0.58-0.41-0.89-0.63c-0.3,0.21-0.59,0.42-0.93,0.66c0.06-0.41,0.22-0.73,0.31-1.1c-0.28-0.21-0.57-0.42-0.91-0.67
		c0.41-0.09,0.78,0,1.15-0.07c0.11-0.33,0.23-0.67,0.34-1C16.7,40.76,16.72,40.76,16.74,40.76z"/>
	<path class="st1" d="M30.42,47.45c0.37,0,0.73,0,1.09,0c-0.24,0.3-0.56,0.47-0.85,0.73c0.11,0.34,0.21,0.69,0.32,1.03
		c-0.01,0.01-0.03,0.02-0.04,0.04c-0.3-0.21-0.59-0.42-0.9-0.63c-0.3,0.22-0.59,0.43-0.93,0.67c0.03-0.13,0.04-0.2,0.06-0.27
		c0.07-0.22,0.13-0.45,0.22-0.67c0.05-0.13,0.02-0.21-0.09-0.29c-0.25-0.17-0.49-0.36-0.77-0.56c0.21-0.09,0.4-0.04,0.58-0.05
		c0.19-0.01,0.38,0,0.57,0c0.12-0.36,0.23-0.71,0.35-1.05c0.02,0,0.03,0,0.05,0C30.18,46.75,30.29,47.08,30.42,47.45z"/>
	<path class="st1" d="M8.58,47.45c0.36,0,0.71,0,1.08,0c0.12-0.36,0.23-0.7,0.37-1.09c0.19,0.36,0.24,0.73,0.4,1.08
		c0.35,0,0.72,0,1.08,0c0.01,0.02,0.02,0.04,0.02,0.06c-0.27,0.24-0.59,0.42-0.88,0.67c0.11,0.35,0.22,0.69,0.33,1.04
		c-0.02,0.01-0.03,0.02-0.05,0.04c-0.3-0.21-0.59-0.42-0.9-0.64c-0.3,0.21-0.59,0.42-0.92,0.66c0.06-0.42,0.23-0.74,0.31-1.11
		c-0.29-0.22-0.58-0.43-0.87-0.64C8.57,47.5,8.57,47.47,8.58,47.45z"/>
	<path class="st1" d="M33.75,33.29c0.37,0,0.72,0,1.11,0c-0.11,0.2-0.29,0.27-0.43,0.38c-0.14,0.11-0.29,0.21-0.44,0.33
		c0.11,0.36,0.22,0.71,0.33,1.06c-0.34-0.16-0.62-0.39-0.94-0.6c-0.3,0.21-0.6,0.42-0.9,0.63c-0.02-0.01-0.03-0.02-0.05-0.03
		c0.11-0.34,0.22-0.68,0.34-1.05c-0.28-0.21-0.58-0.42-0.9-0.67c0.22-0.08,0.4-0.04,0.58-0.05c0.18-0.01,0.36,0,0.55,0
		c0.12-0.36,0.24-0.7,0.36-1.05c0.02,0,0.04,0,0.05,0.01C33.51,32.59,33.63,32.92,33.75,33.29z"/>
	<path class="st1" d="M13.38,40.12c-0.31,0.22-0.6,0.43-0.94,0.67c0.07-0.42,0.24-0.75,0.33-1.12c-0.3-0.22-0.59-0.43-0.88-0.64
		c0.01-0.02,0.01-0.04,0.02-0.06c0.36,0,0.72,0,1.09,0c0.13-0.37,0.24-0.72,0.36-1.06c0.02,0,0.04,0,0.05,0
		c0.11,0.35,0.23,0.69,0.35,1.06c0.37,0,0.73,0,1.1,0c0.01,0.02,0.01,0.03,0.02,0.05c-0.07,0.05-0.13,0.11-0.2,0.16
		c-0.17,0.12-0.33,0.24-0.5,0.37c-0.19,0.14-0.19,0.14-0.11,0.38c0.06,0.2,0.13,0.39,0.19,0.59c0.02,0.07,0.04,0.14,0.07,0.27
		C13.97,40.56,13.7,40.33,13.38,40.12z"/>
	<path class="st1" d="M13,33.28c0.12-0.36,0.23-0.7,0.34-1.04c0.02,0,0.04,0,0.06,0c0.12,0.34,0.23,0.68,0.36,1.05
		c0.37,0,0.73,0,1.1,0c0.01,0.02,0.01,0.04,0.02,0.05c-0.16,0.12-0.33,0.24-0.49,0.36c-0.5,0.38-0.42,0.18-0.25,0.77
		c0.05,0.19,0.12,0.37,0.2,0.63c-0.37-0.2-0.63-0.45-0.96-0.65c-0.29,0.21-0.59,0.42-0.89,0.63c-0.01-0.01-0.03-0.02-0.04-0.03
		c0.05-0.17,0.1-0.34,0.15-0.51c0.05-0.17,0.11-0.34,0.17-0.54c-0.3-0.22-0.59-0.43-0.91-0.67c0.22-0.09,0.4-0.04,0.58-0.05
		C12.61,33.28,12.79,33.28,13,33.28z"/>
	<path class="st1" d="M20.02,32.21c0.2,0.35,0.24,0.71,0.4,1.06c0.35,0,0.72,0,1.12,0c-0.1,0.22-0.29,0.28-0.43,0.39
		c-0.14,0.12-0.3,0.22-0.46,0.34c0.11,0.35,0.22,0.69,0.33,1.03c-0.01,0.01-0.03,0.03-0.04,0.04c-0.31-0.18-0.58-0.42-0.9-0.62
		c-0.3,0.21-0.6,0.42-0.89,0.63c-0.02-0.01-0.03-0.02-0.05-0.03c0.11-0.34,0.21-0.69,0.33-1.05c-0.3-0.22-0.58-0.44-0.87-0.66
		c0.01-0.02,0.01-0.04,0.02-0.06c0.36,0,0.72,0,1.08,0C19.78,32.92,19.9,32.59,20.02,32.21z"/>
	<path class="st1" d="M18.58,38.96c0.36,0,0.71,0,1.08,0c0.12-0.36,0.24-0.71,0.35-1.06c0.02,0,0.03,0,0.05,0
		c0.12,0.35,0.23,0.69,0.36,1.06c0.37,0,0.73,0,1.09,0c0.01,0.02,0.02,0.04,0.02,0.06c-0.29,0.21-0.58,0.43-0.88,0.65
		c0.11,0.35,0.22,0.69,0.32,1.03c-0.34-0.15-0.62-0.38-0.93-0.59c-0.3,0.22-0.6,0.43-0.94,0.67c0.02-0.1,0.02-0.16,0.03-0.21
		c0.07-0.22,0.14-0.44,0.21-0.67c0.08-0.24,0.08-0.24-0.13-0.39c-0.17-0.13-0.35-0.25-0.52-0.38c-0.05-0.04-0.09-0.08-0.13-0.12
		C18.57,39,18.57,38.98,18.58,38.96z"/>
	<path class="st1" d="M24.26,49.25c-0.29-0.21-0.58-0.41-0.88-0.63c-0.3,0.21-0.6,0.42-0.9,0.63c-0.01-0.01-0.03-0.02-0.04-0.03
		c0.11-0.34,0.21-0.68,0.33-1.04c-0.29-0.22-0.58-0.44-0.88-0.66c0.01-0.02,0.01-0.04,0.02-0.06c0.36,0,0.72,0,1.09,0
		c0.12-0.37,0.24-0.71,0.36-1.06c0.02,0,0.04,0,0.05,0c0.11,0.34,0.22,0.67,0.34,1.04c0.36,0,0.73,0,1.09,0
		c0.01,0.02,0.02,0.04,0.02,0.06c-0.26,0.25-0.58,0.42-0.87,0.67c0.11,0.35,0.21,0.69,0.32,1.04
		C24.29,49.23,24.27,49.24,24.26,49.25z"/>
	<path class="st1" d="M32.98,38.98c0.13-0.38,0.24-0.72,0.36-1.05c0.02,0,0.04,0,0.06,0c0.11,0.34,0.23,0.68,0.35,1.04
		c0.36,0,0.72,0,1.11,0c-0.12,0.21-0.3,0.27-0.44,0.39c-0.14,0.11-0.29,0.21-0.44,0.33c0.11,0.36,0.22,0.7,0.33,1.05
		c-0.02,0.01-0.04,0.02-0.05,0.03c-0.29-0.21-0.58-0.41-0.88-0.63c-0.3,0.21-0.6,0.42-0.95,0.67c0.07-0.42,0.24-0.74,0.32-1.12
		c-0.28-0.21-0.57-0.43-0.86-0.64c0.01-0.02,0.01-0.03,0.02-0.05C32.26,38.98,32.61,38.98,32.98,38.98z"/>
	<path class="st1" d="M26.09,34.01c-0.3-0.22-0.59-0.44-0.88-0.65c0.01-0.02,0.01-0.04,0.02-0.05c0.36,0,0.71,0,1.09,0
		c0.12-0.36,0.23-0.7,0.35-1.05c0.02,0,0.04,0,0.06,0c0.11,0.34,0.22,0.67,0.35,1.04c0.36,0,0.73,0,1.09,0
		c0.01,0.02,0.02,0.04,0.02,0.06c-0.27,0.24-0.59,0.42-0.88,0.66c0.11,0.35,0.22,0.7,0.33,1.04c-0.02,0.01-0.03,0.02-0.05,0.03
		c-0.29-0.21-0.58-0.42-0.89-0.64c-0.3,0.21-0.59,0.42-0.93,0.66C25.84,34.7,26,34.37,26.09,34.01z"/>
	<path class="st1" d="M6.75,32.26c0.11,0.34,0.23,0.68,0.34,1.03c0.37,0,0.73,0,1.08,0c0.01,0.02,0.02,0.04,0.02,0.05
		C7.93,33.58,7.61,33.77,7.32,34c0.11,0.35,0.21,0.69,0.32,1.03c-0.01,0.01-0.03,0.03-0.04,0.04c-0.3-0.18-0.57-0.41-0.89-0.62
		c-0.29,0.21-0.59,0.42-0.89,0.63c-0.02-0.01-0.03-0.02-0.05-0.03c0.11-0.34,0.21-0.68,0.32-1.04c-0.27-0.24-0.6-0.43-0.88-0.67
		c0.01-0.02,0.01-0.03,0.02-0.05c0.36,0,0.71,0,1.09,0c0.12-0.36,0.24-0.7,0.36-1.05C6.7,32.25,6.73,32.25,6.75,32.26z"/>
	<path class="st1" d="M36.69,48.62c-0.3,0.21-0.58,0.42-0.91,0.65c0.04-0.41,0.23-0.73,0.3-1.11c-0.29-0.21-0.58-0.43-0.87-0.64
		c0.01-0.02,0.01-0.04,0.02-0.06c0.36,0,0.72,0,1.09,0c0.12-0.37,0.24-0.71,0.37-1.11c0.18,0.38,0.25,0.74,0.4,1.09
		c0.36,0,0.72,0,1.09,0c0.01,0.02,0.01,0.04,0.02,0.05c-0.26,0.25-0.59,0.42-0.88,0.67c0.11,0.34,0.22,0.69,0.33,1.03
		C37.29,49.06,37.02,48.82,36.69,48.62z"/>
	<path class="st1" d="M29.42,25.51c-0.3-0.23-0.59-0.44-0.89-0.66c0.01-0.02,0.01-0.03,0.02-0.05c0.36,0,0.73,0,1.1,0
		c0.12-0.36,0.24-0.71,0.35-1.05c0.02,0,0.03,0,0.05,0c0.12,0.34,0.23,0.68,0.35,1.04c0.36,0,0.73,0,1.16,0
		c-0.3,0.3-0.63,0.47-0.92,0.73c0.11,0.34,0.22,0.69,0.32,1.04c-0.02,0.01-0.03,0.03-0.05,0.04c-0.29-0.21-0.59-0.42-0.89-0.64
		c-0.3,0.21-0.59,0.42-0.88,0.63c-0.02-0.01-0.03-0.02-0.05-0.03C29.21,26.21,29.32,25.86,29.42,25.51z"/>
	<path class="st1" d="M2.44,26.55c0.11-0.35,0.22-0.69,0.33-1.05c-0.31-0.23-0.6-0.44-0.91-0.67c0.21-0.08,0.4-0.03,0.58-0.04
		c0.19-0.01,0.38,0,0.57,0c0.12-0.35,0.23-0.69,0.35-1.03c0.02,0,0.04-0.01,0.05-0.01c0.12,0.34,0.23,0.68,0.35,1.04
		c0.37,0,0.73,0,1.15,0c-0.3,0.3-0.63,0.47-0.92,0.73c0.11,0.34,0.22,0.69,0.32,1.03c-0.01,0.01-0.03,0.02-0.04,0.04
		c-0.3-0.21-0.59-0.42-0.89-0.64c-0.3,0.21-0.6,0.43-0.89,0.64C2.47,26.58,2.46,26.56,2.44,26.55z"/>
	<path class="st1" d="M11.54,24.85c-0.29,0.22-0.59,0.43-0.89,0.65c0.12,0.36,0.23,0.71,0.34,1.05c-0.02,0.01-0.03,0.02-0.05,0.03
		c-0.3-0.21-0.59-0.42-0.9-0.64c-0.3,0.21-0.59,0.43-0.89,0.64c-0.02-0.01-0.03-0.03-0.05-0.04c0.11-0.35,0.22-0.69,0.33-1.04
		c-0.3-0.22-0.59-0.44-0.88-0.65c0-0.02,0.01-0.04,0.01-0.05c0.36-0.04,0.72,0.01,1.1-0.02c0.12-0.34,0.23-0.68,0.35-1.03
		c0.02,0,0.04,0,0.06-0.01c0.11,0.34,0.22,0.67,0.34,1.03c0.36,0,0.73,0,1.1,0C11.52,24.81,11.53,24.83,11.54,24.85z"/>
	<path class="st1" d="M22.99,24.8c0.13-0.38,0.24-0.72,0.35-1.05c0.02,0,0.04,0,0.06,0c0.11,0.34,0.22,0.67,0.34,1.04
		c0.37,0,0.73,0,1.09,0c0.01,0.02,0.01,0.04,0.02,0.06c-0.27,0.24-0.59,0.42-0.88,0.67c0.11,0.35,0.22,0.7,0.32,1.04
		c-0.02,0.01-0.03,0.02-0.05,0.04c-0.29-0.21-0.59-0.42-0.89-0.64c-0.3,0.22-0.59,0.43-0.88,0.63c-0.02-0.01-0.03-0.02-0.05-0.03
		c0.11-0.34,0.22-0.69,0.33-1.05c-0.3-0.22-0.59-0.44-0.89-0.65c0.01-0.02,0.01-0.03,0.02-0.05C22.25,24.8,22.61,24.8,22.99,24.8z"
		/>
	<path class="st1" d="M17.32,48.17c0.11,0.36,0.22,0.7,0.32,1.04c-0.02,0.01-0.03,0.03-0.05,0.04c-0.29-0.2-0.57-0.41-0.89-0.63
		c-0.29,0.21-0.59,0.42-0.93,0.67c0.07-0.42,0.25-0.75,0.32-1.12c-0.29-0.21-0.58-0.43-0.87-0.64c0.01-0.02,0.01-0.04,0.02-0.06
		c0.35,0,0.71,0,1.08,0c0.12-0.35,0.23-0.69,0.36-1.06c0.15,0.16,0.16,0.35,0.23,0.52c0.06,0.17,0.11,0.34,0.18,0.52
		c0.37,0,0.73,0,1.12,0c-0.1,0.21-0.29,0.27-0.42,0.38C17.64,47.95,17.49,48.04,17.32,48.17z"/>
	<path class="st1" d="M27.32,39.68c0.11,0.36,0.22,0.7,0.33,1.04c-0.02,0.01-0.03,0.02-0.05,0.03c-0.29-0.21-0.58-0.41-0.89-0.64
		c-0.29,0.21-0.59,0.42-0.94,0.67c0.07-0.41,0.24-0.74,0.32-1.12c-0.29-0.21-0.58-0.43-0.87-0.64c0.01-0.02,0.01-0.04,0.02-0.05
		c0.36,0,0.72,0,1.09,0c0.12-0.36,0.23-0.7,0.37-1.11c0.19,0.38,0.24,0.74,0.4,1.1c0.35,0,0.72,0,1.15,0
		C27.93,39.26,27.6,39.43,27.32,39.68z"/>
	<path class="st1" d="M7.59,40.74c-0.29-0.21-0.58-0.42-0.88-0.63c-0.3,0.21-0.59,0.42-0.94,0.67c0.06-0.41,0.23-0.74,0.32-1.11
		c-0.29-0.21-0.58-0.43-0.92-0.68c0.42-0.06,0.78,0,1.16-0.04c0.12-0.34,0.23-0.68,0.35-1.03c0.02,0,0.04,0,0.06,0
		c0.12,0.34,0.23,0.69,0.35,1.04c0.37,0,0.73,0,1.08,0c0.01,0.02,0.02,0.03,0.02,0.05c-0.27,0.24-0.58,0.42-0.87,0.66
		c0.11,0.35,0.22,0.7,0.32,1.04C7.63,40.72,7.61,40.73,7.59,40.74z"/>
	<path class="st1" d="M36.7,25.95c-0.31,0.22-0.6,0.43-0.89,0.63c-0.02-0.01-0.03-0.02-0.05-0.03c0.11-0.34,0.22-0.69,0.33-1.05
		c-0.3-0.22-0.59-0.43-0.88-0.65c0.01-0.02,0.02-0.04,0.02-0.05c0.35,0,0.71,0,1.08,0c0.12-0.36,0.24-0.71,0.37-1.11
		c0.19,0.37,0.25,0.74,0.4,1.09c0.36,0,0.72,0,1.09,0c0.01,0.02,0.01,0.04,0.02,0.05c-0.27,0.24-0.59,0.42-0.88,0.67
		c0.11,0.34,0.22,0.69,0.33,1.04c-0.02,0.01-0.03,0.03-0.05,0.04C37.3,26.38,37.01,26.17,36.7,25.95z"/>
	<path class="st1" d="M13.4,43.58c0.11,0.34,0.23,0.68,0.35,1.04c0.36,0,0.72,0,1.12,0c-0.12,0.2-0.3,0.27-0.44,0.38
		c-0.14,0.11-0.29,0.21-0.44,0.33c0.11,0.36,0.22,0.71,0.32,1.06c-0.01,0.01-0.03,0.02-0.04,0.03c-0.3-0.21-0.59-0.42-0.9-0.64
		c-0.3,0.22-0.6,0.43-0.9,0.64c-0.01-0.01-0.03-0.02-0.04-0.03c0.11-0.35,0.22-0.69,0.33-1.06c-0.29-0.22-0.58-0.43-0.9-0.66
		c0.2-0.09,0.39-0.04,0.57-0.05c0.18-0.01,0.36,0,0.56,0c0.12-0.35,0.23-0.7,0.35-1.04C13.36,43.58,13.38,43.58,13.4,43.58z"/>
	<path class="st1" d="M19.41,45.32c-0.28-0.21-0.57-0.42-0.85-0.63c0.01-0.02,0.01-0.04,0.02-0.05c0.35,0,0.71,0,1.08,0
		c0.13-0.37,0.24-0.71,0.36-1.06c0.02,0,0.04,0,0.05-0.01c0.11,0.34,0.23,0.69,0.35,1.06c0.37,0,0.73,0,1.09,0
		c0.01,0.02,0.01,0.04,0.02,0.05c-0.29,0.21-0.57,0.42-0.88,0.65c0.11,0.35,0.22,0.7,0.33,1.04c-0.34-0.15-0.62-0.39-0.94-0.6
		c-0.29,0.21-0.59,0.42-0.93,0.66C19.16,46.03,19.36,45.7,19.41,45.32z"/>
	<path class="st1" d="M16.32,24.8c0.13-0.37,0.24-0.71,0.35-1.05c0.02,0,0.04,0,0.06,0c0.12,0.34,0.23,0.68,0.35,1.04
		c0.37,0,0.73,0,1.08,0c0.01,0.02,0.02,0.03,0.02,0.05c-0.26,0.24-0.58,0.42-0.87,0.67c0.11,0.34,0.21,0.69,0.32,1.04
		c-0.02,0.01-0.03,0.02-0.05,0.03c-0.29-0.21-0.58-0.41-0.89-0.63c-0.29,0.21-0.59,0.42-0.88,0.63c-0.02-0.01-0.03-0.02-0.05-0.03
		c0.11-0.35,0.21-0.69,0.32-1.05c-0.3-0.22-0.59-0.44-0.88-0.65c0.01-0.02,0.01-0.03,0.02-0.05C15.59,24.8,15.95,24.8,16.32,24.8z"
		/>
	<path class="st1" d="M24.86,30.52c-0.18,0.14-0.37,0.27-0.55,0.41c-0.37,0.28-0.35,0.17-0.2,0.62c0.07,0.21,0.13,0.41,0.19,0.62
		c0,0.01-0.01,0.03-0.02,0.09c-0.31-0.22-0.6-0.43-0.91-0.64c-0.3,0.21-0.6,0.43-0.9,0.64c-0.01-0.01-0.03-0.02-0.04-0.03
		c0.11-0.35,0.22-0.69,0.33-1.06c-0.29-0.22-0.58-0.43-0.89-0.66c0.2-0.09,0.39-0.04,0.57-0.05c0.18-0.01,0.36,0,0.56,0
		c0.12-0.35,0.24-0.7,0.36-1.04c0.02,0,0.04,0,0.05,0c0.12,0.34,0.23,0.68,0.36,1.05c0.36,0,0.72,0,1.08,0
		C24.84,30.48,24.85,30.5,24.86,30.52z"/>
	<path class="st1" d="M17.1,30.46c0.37,0,0.72,0,1.1,0c-0.11,0.19-0.29,0.26-0.43,0.37c-0.14,0.11-0.29,0.21-0.45,0.33
		c0.11,0.35,0.22,0.7,0.32,1.05c-0.01,0.01-0.03,0.02-0.04,0.04c-0.3-0.21-0.59-0.42-0.89-0.63c-0.3,0.21-0.59,0.42-0.94,0.67
		c0.07-0.42,0.24-0.75,0.32-1.11c-0.29-0.22-0.58-0.43-0.87-0.65c0.01-0.02,0.01-0.04,0.02-0.06c0.18,0,0.35,0,0.53,0
		c0.18,0,0.36,0,0.56,0c0.12-0.35,0.23-0.69,0.37-1.1C16.89,29.74,16.94,30.11,17.1,30.46z"/>
	<path class="st1" d="M37.6,32.26c-0.3-0.21-0.59-0.42-0.9-0.64c-0.3,0.21-0.6,0.42-0.89,0.64c-0.01-0.01-0.03-0.02-0.04-0.03
		c0.11-0.35,0.21-0.69,0.32-1.05c-0.3-0.22-0.58-0.43-0.87-0.64c0.01-0.02,0.01-0.03,0.02-0.05c0.35,0,0.71,0,1.08,0
		c0.12-0.36,0.24-0.71,0.37-1.11c0.19,0.36,0.24,0.73,0.4,1.09c0.35,0,0.72,0,1.08,0c0.01,0.02,0.02,0.04,0.02,0.06
		c-0.29,0.21-0.58,0.43-0.88,0.65c0.11,0.36,0.22,0.71,0.33,1.05C37.63,32.24,37.61,32.25,37.6,32.26z"/>
	<path class="st1" d="M10.43,30.47c0.38,0,0.73,0,1.13,0c-0.29,0.29-0.62,0.46-0.9,0.71c0.11,0.35,0.22,0.7,0.33,1.05
		c-0.01,0.01-0.03,0.02-0.04,0.03c-0.3-0.21-0.59-0.43-0.9-0.64c-0.3,0.22-0.59,0.43-0.92,0.66c0.01-0.1,0.01-0.16,0.02-0.21
		c0.07-0.24,0.15-0.48,0.24-0.72c0.05-0.13,0.02-0.22-0.1-0.3c-0.24-0.17-0.48-0.35-0.75-0.54c0.21-0.09,0.39-0.04,0.57-0.05
		c0.18-0.01,0.36,0,0.55,0c0.12-0.36,0.24-0.7,0.36-1.05c0.02,0,0.04,0,0.06,0C10.19,29.76,10.3,30.1,10.43,30.47z"/>
	<path class="st1" d="M29.1,32.23c0.11-0.35,0.22-0.69,0.33-1.05c-0.3-0.22-0.59-0.43-0.87-0.65c0.01-0.02,0.01-0.04,0.02-0.05
		c0.35,0,0.71,0,1.08,0c0.12-0.37,0.24-0.71,0.35-1.06c0.02,0,0.04,0,0.06-0.01c0.12,0.34,0.23,0.68,0.36,1.05c0.36,0,0.71,0,1.07,0
		c0.01,0.02,0.02,0.04,0.03,0.05c-0.25,0.24-0.57,0.41-0.85,0.66c0.06,0.35,0.24,0.69,0.33,1.13c-0.35-0.25-0.65-0.46-0.95-0.68
		c-0.3,0.22-0.6,0.43-0.89,0.64C29.13,32.25,29.12,32.24,29.1,32.23z"/>
	<path class="st1" d="M34.26,46.42c-0.3-0.21-0.59-0.43-0.9-0.65c-0.3,0.22-0.59,0.43-0.88,0.64c-0.02-0.01-0.03-0.02-0.05-0.03
		c0.06-0.35,0.23-0.68,0.32-1.06c-0.28-0.2-0.56-0.42-0.91-0.67c0.41-0.05,0.77-0.01,1.15-0.03c0.12-0.34,0.24-0.69,0.36-1.04
		c0.02,0,0.04,0,0.06,0c0.12,0.34,0.23,0.69,0.36,1.06c0.36,0,0.72,0,1.07,0c0.01,0.02,0.01,0.03,0.02,0.05
		c-0.28,0.21-0.56,0.41-0.86,0.64c0.11,0.35,0.22,0.71,0.32,1.06C34.29,46.4,34.28,46.41,34.26,46.42z"/>
	<path class="st1" d="M4.27,32.25c-0.29-0.21-0.58-0.42-0.89-0.64c-0.29,0.21-0.59,0.43-0.89,0.64c-0.02-0.01-0.03-0.02-0.05-0.03
		c0.05-0.17,0.1-0.35,0.15-0.52c0.05-0.17,0.1-0.34,0.15-0.51c-0.14-0.12-0.29-0.24-0.44-0.35c-0.13-0.1-0.27-0.2-0.43-0.32
		c0.2-0.09,0.39-0.04,0.57-0.05c0.18-0.01,0.36,0,0.55,0c0.12-0.36,0.23-0.71,0.35-1.05c0.02,0,0.04,0,0.05,0
		c0.12,0.34,0.23,0.69,0.36,1.05c0.36,0,0.72,0,1.07,0c0.01,0.02,0.02,0.04,0.02,0.05c-0.26,0.24-0.58,0.42-0.87,0.66
		c0.11,0.35,0.22,0.7,0.33,1.05C4.3,32.23,4.29,32.24,4.27,32.25z"/>
	<path class="st1" d="M8.19,44.69c-0.28,0.21-0.56,0.41-0.87,0.64c0.11,0.35,0.22,0.69,0.34,1.09c-0.22-0.09-0.35-0.22-0.5-0.32
		c-0.15-0.1-0.29-0.21-0.45-0.33c-0.3,0.21-0.6,0.43-0.9,0.64c-0.02-0.01-0.03-0.02-0.05-0.03c0.11-0.35,0.22-0.69,0.33-1.06
		c-0.29-0.22-0.58-0.43-0.93-0.68c0.42-0.05,0.78,0,1.16-0.03c0.12-0.35,0.24-0.69,0.35-1.03c0.02,0,0.04,0,0.06,0
		c0.11,0.34,0.23,0.69,0.35,1.05c0.37,0,0.72,0,1.08,0C8.18,44.65,8.19,44.67,8.19,44.69z"/>
	<path class="st1" d="M27.1,44.64c0.36,0,0.72,0,1.07,0c0.01,0.02,0.01,0.03,0.02,0.05c-0.28,0.21-0.57,0.42-0.87,0.65
		c0.11,0.35,0.22,0.69,0.33,1.04c-0.01,0.01-0.03,0.03-0.04,0.04c-0.29-0.21-0.59-0.42-0.9-0.63c-0.3,0.21-0.6,0.42-0.89,0.63
		c-0.01-0.01-0.03-0.02-0.04-0.03c0.11-0.35,0.21-0.7,0.32-1.05c-0.3-0.22-0.58-0.43-0.87-0.64c0.36-0.09,0.72-0.05,1.1-0.07
		c0.11-0.34,0.23-0.68,0.37-1.09C26.88,43.91,26.94,44.27,27.1,44.64z"/>
	<path class="st1" d="M16.74,35.09c0.08,0.24,0.16,0.48,0.24,0.71c0.11,0.33,0.02,0.32,0.45,0.32c0.19,0,0.38,0,0.57,0
		c0.06,0,0.12,0.01,0.24,0.03c-0.33,0.25-0.62,0.46-0.91,0.68c0.11,0.35,0.22,0.7,0.32,1.05c-0.02,0.01-0.03,0.02-0.05,0.03
		c-0.29-0.21-0.58-0.41-0.89-0.63c-0.3,0.21-0.6,0.42-0.89,0.64c-0.02-0.01-0.03-0.02-0.05-0.03c0.11-0.35,0.22-0.69,0.33-1.05
		c-0.29-0.22-0.58-0.43-0.91-0.67c0.11-0.02,0.17-0.03,0.22-0.03c0.24,0,0.49-0.01,0.73,0c0.14,0,0.21-0.04,0.25-0.18
		c0.06-0.22,0.13-0.43,0.21-0.64c0.02-0.07,0.06-0.14,0.09-0.21C16.7,35.09,16.72,35.09,16.74,35.09z"/>
	<path class="st1" d="M2.77,36.83c-0.3-0.23-0.58-0.43-0.92-0.68C2.26,36.1,2.62,36.15,3,36.11c0.12-0.35,0.24-0.7,0.36-1.05
		c0.02,0,0.03,0,0.05,0c0.06,0.19,0.12,0.39,0.19,0.58c0.21,0.59,0.05,0.48,0.67,0.49c0.19,0,0.37,0,0.57,0.03
		c-0.24,0.27-0.56,0.44-0.85,0.69c0.11,0.35,0.22,0.7,0.33,1.06c-0.01,0.01-0.03,0.02-0.04,0.03c-0.3-0.21-0.59-0.43-0.9-0.65
		c-0.31,0.22-0.6,0.43-0.9,0.64c-0.01-0.01-0.03-0.02-0.04-0.03C2.55,37.55,2.65,37.2,2.77,36.83z"/>
	<path class="st1" d="M37.59,37.92c-0.29-0.21-0.58-0.42-0.89-0.64c-0.29,0.21-0.58,0.42-0.87,0.62c-0.02-0.01-0.03-0.02-0.05-0.03
		c0.05-0.35,0.23-0.67,0.3-1.04c-0.28-0.21-0.57-0.42-0.89-0.66c0.1-0.02,0.16-0.04,0.21-0.04c0.22,0,0.43,0,0.65,0
		c0.27,0,0.28,0,0.36-0.25c0.09-0.26,0.17-0.53,0.28-0.84c0.05,0.09,0.08,0.14,0.1,0.2c0.07,0.2,0.14,0.41,0.2,0.61
		c0.09,0.28,0.09,0.28,0.37,0.28c0.2,0,0.4,0,0.59,0c0.07,0,0.14,0.01,0.23,0.07c-0.28,0.21-0.56,0.42-0.86,0.64
		c0.11,0.35,0.22,0.7,0.33,1.04C37.62,37.9,37.61,37.91,37.59,37.92z"/>
</g>
</svg>
